solid 
   facet normal -1.000000e+00 -4.719425e-17 1.836970e-16
      outer loop
         vertex 5.510911e-15 -2.000000e+01 3.000000e+01
         vertex 3.769868e-15 -1.539873e+01 2.170433e+01
         vertex -5.510911e-15 -2.000000e+01 -3.000000e+01
      endloop
   endfacet
   facet normal -1.000000e+00 9.849015e-16 9.184883e-17
      outer loop
         vertex 3.769868e-15 -1.539873e+01 2.170433e+01
         vertex 3.640484e-15 -1.539873e+01 2.029567e+01
         vertex -5.510911e-15 -2.000000e+01 -3.000000e+01
      endloop
   endfacet
   facet normal -1.000000e+00 0.000000e+00 2.295436e-16
      outer loop
         vertex -5.510911e-15 -2.000000e+01 -3.000000e+01
         vertex -3.878712e-15 -1.463715e+01 -2.288937e+01
         vertex -5.510911e-15 -6.000000e+00 -3.000000e+01
      endloop
   endfacet
   facet normal -1.000000e+00 -6.371200e-16 -5.443548e-16
      outer loop
         vertex -3.878712e-15 -1.463715e+01 -2.288937e+01
         vertex -4.376549e-15 -1.335579e+01 -2.347455e+01
         vertex -5.510911e-15 -6.000000e+00 -3.000000e+01
      endloop
   endfacet
   facet normal -1.000000e+00 -6.061142e-17 1.836970e-16
      outer loop
         vertex -5.510911e-15 -6.000000e+00 -3.000000e+01
         vertex -3.914046e-15 -1.196146e+01 -2.327408e+01
         vertex -4.041334e-15 -6.000000e+00 -2.200000e+01
      endloop
   endfacet
   facet normal -1.000000e+00 -5.439884e-17 1.546282e-16
      outer loop
         vertex -3.914046e-15 -1.196146e+01 -2.327408e+01
         vertex -3.829318e-15 -1.089687e+01 -2.235160e+01
         vertex -4.041334e-15 -6.000000e+00 -2.200000e+01
      endloop
   endfacet
   facet normal -1.000000e+00 -5.923937e-17 2.220435e-16
      outer loop
         vertex -3.829318e-15 -1.089687e+01 -2.235160e+01
         vertex -3.552714e-15 -1.050000e+01 -2.100000e+01
         vertex -4.041334e-15 -6.000000e+00 -2.200000e+01
      endloop
   endfacet
   facet normal -1.000000e+00 -1.211431e-16 -5.652314e-17
      outer loop
         vertex -3.552714e-15 -1.050000e+01 -2.100000e+01
         vertex -3.581033e-15 -1.089687e+01 -1.964840e+01
         vertex -4.041334e-15 -6.000000e+00 -2.200000e+01
      endloop
   endfacet
   facet normal -1.000000e+00 0.000000e+00 1.957395e-16
      outer loop
         vertex -4.041334e-15 -6.000000e+00 -2.200000e+01
         vertex -3.581033e-15 -1.089687e+01 -1.964840e+01
         vertex -4.041334e-15 6.000000e+00 -2.200000e+01
      endloop
   endfacet
   facet normal -1.000000e+00 -1.722559e-17 7.196920e-17
      outer loop
         vertex -3.581033e-15 -1.089687e+01 -1.964840e+01
         vertex -3.496305e-15 -1.196146e+01 -1.872592e+01
         vertex -4.041334e-15 6.000000e+00 -2.200000e+01
      endloop
   endfacet
   facet normal -1.000000e+00 2.127882e-16 9.184883e-17
      outer loop
         vertex -3.769868e-15 -1.539873e+01 -2.170433e+01
         vertex -5.510911e-15 -2.000000e+01 -3.000000e+01
         vertex -3.640484e-15 -1.539873e+01 -2.029567e+01
      endloop
   endfacet
   facet normal -1.000000e+00 2.819607e-17 1.793724e-16
      outer loop
         vertex -5.510911e-15 -2.000000e+01 -3.000000e+01
         vertex 3.640484e-15 -1.539873e+01 2.029567e+01
         vertex -3.640484e-15 -1.539873e+01 -2.029567e+01
      endloop
   endfacet
   facet normal -1.000000e+00 -1.361901e-16 1.793724e-16
      outer loop
         vertex -3.640484e-15 -1.539873e+01 -2.029567e+01
         vertex 3.640484e-15 -1.539873e+01 2.029567e+01
         vertex -3.531639e-15 -1.463715e+01 -1.911063e+01
      endloop
   endfacet
   facet normal -1.000000e+00 1.446352e-16 1.847998e-16
      outer loop
         vertex 3.640484e-15 -1.539873e+01 2.029567e+01
         vertex 3.531639e-15 -1.463715e+01 1.911063e+01
         vertex -3.531639e-15 -1.463715e+01 -1.911063e+01
      endloop
   endfacet
   facet normal -1.000000e+00 3.041257e-16 1.847998e-16
      outer loop
         vertex -3.531639e-15 -1.463715e+01 -1.911063e+01
         vertex 3.531639e-15 -1.463715e+01 1.911063e+01
         vertex -3.033802e-15 -1.335579e+01 -1.852545e+01
      endloop
   endfacet
   facet normal -1.000000e+00 -3.137324e-16 1.637641e-16
      outer loop
         vertex 3.531639e-15 -1.463715e+01 1.911063e+01
         vertex 3.033802e-15 -1.335579e+01 1.852545e+01
         vertex -3.033802e-15 -1.335579e+01 -1.852545e+01
      endloop
   endfacet
   facet normal -1.000000e+00 -3.081577e-16 1.637641e-16
      outer loop
         vertex -3.033802e-15 -1.335579e+01 -1.852545e+01
         vertex 3.033802e-15 -1.335579e+01 1.852545e+01
         vertex -3.496305e-15 -1.196146e+01 -1.872592e+01
      endloop
   endfacet
   facet normal -1.000000e+00 3.048586e-16 1.867094e-16
      outer loop
         vertex 3.033802e-15 -1.335579e+01 1.852545e+01
         vertex 3.496305e-15 -1.196146e+01 1.872592e+01
         vertex -3.496305e-15 -1.196146e+01 -1.872592e+01
      endloop
   endfacet
   facet normal -1.000000e+00 -5.801467e-18 1.346414e-16
      outer loop
         vertex -3.496305e-15 -1.196146e+01 -1.872592e+01
         vertex -3.362815e-15 -1.241117e+00 -1.727256e+01
         vertex -4.041334e-15 6.000000e+00 -2.200000e+01
      endloop
   endfacet
   facet normal -1.000000e+00 7.708813e-18 1.553354e-16
      outer loop
         vertex -3.362815e-15 -1.241117e+00 -1.727256e+01
         vertex -3.381362e-15 4.218784e-01 -1.747448e+01
         vertex -4.041334e-15 6.000000e+00 -2.200000e+01
      endloop
   endfacet
   facet normal -1.000000e+00 -1.395192e-17 1.286365e-16
      outer loop
         vertex -3.381362e-15 4.218784e-01 -1.747448e+01
         vertex -3.326800e-15 1.988227e+00 -1.688044e+01
         vertex -4.041334e-15 6.000000e+00 -2.200000e+01
      endloop
   endfacet
   facet normal -1.000000e+00 1.835486e-16 2.834014e-16
      outer loop
         vertex -3.326800e-15 1.988227e+00 -1.688044e+01
         vertex -2.767541e-15 3.099096e+00 -1.562653e+01
         vertex -4.041334e-15 6.000000e+00 -2.200000e+01
      endloop
   endfacet
   facet normal -1.000000e+00 -1.945895e-16 1.112907e-16
      outer loop
         vertex -2.767541e-15 3.099096e+00 -1.562653e+01
         vertex -2.664535e-15 3.500000e+00 -1.400000e+01
         vertex -4.041334e-15 6.000000e+00 -2.200000e+01
      endloop
   endfacet
   facet normal -1.000000e+00 -7.835478e-16 -7.275880e-17
      outer loop
         vertex -2.664535e-15 3.500000e+00 -1.400000e+01
         vertex -2.468752e-15 3.099096e+00 -1.237347e+01
         vertex -4.041334e-15 6.000000e+00 -2.200000e+01
      endloop
   endfacet
   facet normal -1.000000e+00 5.186041e-17 9.184850e-17
      outer loop
         vertex -2.695079e-15 -3.398296e+00 -1.483760e+01
         vertex -3.496305e-15 -1.196146e+01 -1.872592e+01
         vertex -2.541214e-15 -3.398296e+00 -1.316240e+01
      endloop
   endfacet
   facet normal -1.000000e+00 -9.771091e-18 1.867094e-16
      outer loop
         vertex -3.496305e-15 -1.196146e+01 -1.872592e+01
         vertex 3.496305e-15 -1.196146e+01 1.872592e+01
         vertex -2.541214e-15 -3.398296e+00 -1.316240e+01
      endloop
   endfacet
   facet normal -1.000000e+00 -1.228732e-16 1.563374e-16
      outer loop
         vertex -2.541214e-15 -3.398296e+00 -1.316240e+01
         vertex 3.496305e-15 -1.196146e+01 1.872592e+01
         vertex -2.404973e-15 -2.619788e+00 -1.167907e+01
      endloop
   endfacet
   facet normal -1.000000e+00 -6.996530e-17 1.725929e-16
      outer loop
         vertex 3.496305e-15 -1.196146e+01 1.872592e+01
         vertex 3.581033e-15 -1.089687e+01 1.964840e+01
         vertex -2.404973e-15 -2.619788e+00 -1.167907e+01
      endloop
   endfacet
   facet normal -1.000000e+00 2.145014e-16 2.477523e-16
      outer loop
         vertex -2.404973e-15 -2.619788e+00 -1.167907e+01
         vertex 3.581033e-15 -1.089687e+01 1.964840e+01
         vertex -1.873478e-15 -1.241117e+00 -1.072744e+01
      endloop
   endfacet
   facet normal -1.000000e+00 -3.279135e-16 7.533160e-17
      outer loop
         vertex 3.581033e-15 -1.089687e+01 1.964840e+01
         vertex 3.552714e-15 -1.050000e+01 2.100000e+01
         vertex -1.873478e-15 -1.241117e+00 -1.072744e+01
      endloop
   endfacet
   facet normal -1.000000e+00 -9.284718e-18 1.683157e-16
      outer loop
         vertex -1.873478e-15 -1.241117e+00 -1.072744e+01
         vertex 3.552714e-15 -1.050000e+01 2.100000e+01
         vertex -1.854932e-15 4.218784e-01 -1.052552e+01
      endloop
   endfacet
   facet normal -1.000000e+00 6.269845e-16 3.887484e-16
      outer loop
         vertex 3.552714e-15 -1.050000e+01 2.100000e+01
         vertex 3.829318e-15 -1.089687e+01 2.235160e+01
         vertex -1.854932e-15 4.218784e-01 -1.052552e+01
      endloop
   endfacet
   facet normal -1.000000e+00 3.535218e-17 1.850646e-16
      outer loop
         vertex -1.854932e-15 4.218784e-01 -1.052552e+01
         vertex 3.829318e-15 -1.089687e+01 2.235160e+01
         vertex -1.909493e-15 1.988227e+00 -1.111956e+01
      endloop
   endfacet
   facet normal -1.000000e+00 -9.857477e-17 1.551984e-16
      outer loop
         vertex 3.769868e-15 -1.539873e+01 2.170433e+01
         vertex 5.510911e-15 -2.000000e+01 3.000000e+01
         vertex 3.878712e-15 -1.463715e+01 2.288937e+01
      endloop
   endfacet
   facet normal -1.000000e+00 2.110124e-16 3.886896e-16
      outer loop
         vertex 3.878712e-15 -1.463715e+01 2.288937e+01
         vertex 5.510911e-15 -2.000000e+01 3.000000e+01
         vertex 4.376549e-15 -1.335579e+01 2.347455e+01
      endloop
   endfacet
   facet normal -1.000000e+00 0.000000e+00 1.738367e-16
      outer loop
         vertex 5.510911e-15 -2.000000e+01 3.000000e+01
         vertex 5.510911e-15 -6.000000e+00 3.000000e+01
         vertex 4.376549e-15 -1.335579e+01 2.347455e+01
      endloop
   endfacet
   facet normal -1.000000e+00 -2.639329e-16 4.713541e-16
      outer loop
         vertex 4.376549e-15 -1.335579e+01 2.347455e+01
         vertex 5.510911e-15 -6.000000e+00 3.000000e+01
         vertex 3.914046e-15 -1.196146e+01 2.327408e+01
      endloop
   endfacet
   facet normal -1.000000e+00 0.000000e+00 1.836970e-16
      outer loop
         vertex 6.796790e-15 -6.000000e+00 3.700000e+01
         vertex 6.796790e-15 6.000000e+00 3.700000e+01
         vertex 5.510911e-15 -6.000000e+00 3.000000e+01
      endloop
   endfacet
   facet normal -1.000000e+00 -6.488656e-17 2.949311e-16
      outer loop
         vertex 5.510911e-15 -6.000000e+00 3.000000e+01
         vertex 6.796790e-15 6.000000e+00 3.700000e+01
         vertex 3.914046e-15 -1.196146e+01 2.327408e+01
      endloop
   endfacet
   facet normal -1.000000e+00 2.011712e-17 1.836970e-16
      outer loop
         vertex 6.796790e-15 6.000000e+00 3.700000e+01
         vertex 5.510911e-15 6.000000e+00 3.000000e+01
         vertex 3.914046e-15 -1.196146e+01 2.327408e+01
      endloop
   endfacet
   facet normal -1.000000e+00 3.806226e-17 1.357748e-16
      outer loop
         vertex 3.914046e-15 -1.196146e+01 2.327408e+01
         vertex 5.510911e-15 6.000000e+00 3.000000e+01
         vertex 3.829318e-15 -1.089687e+01 2.235160e+01
      endloop
   endfacet
   facet normal -1.000000e+00 0.000000e+00 2.198621e-16
      outer loop
         vertex 5.510911e-15 6.000000e+00 3.000000e+01
         vertex 5.510911e-15 2.000000e+01 3.000000e+01
         vertex 3.829318e-15 -1.089687e+01 2.235160e+01
      endloop
   endfacet
   facet normal -1.000000e+00 7.256478e-17 1.993900e-16
      outer loop
         vertex 3.829318e-15 -1.089687e+01 2.235160e+01
         vertex 2.541214e-15 -3.398296e+00 1.316240e+01
         vertex -1.909493e-15 1.988227e+00 -1.111956e+01
      endloop
   endfacet
   facet normal -1.000000e+00 3.017884e-16 2.502393e-16
      outer loop
         vertex 2.541214e-15 -3.398296e+00 1.316240e+01
         vertex 2.404973e-15 -2.619788e+00 1.167907e+01
         vertex -1.909493e-15 1.988227e+00 -1.111956e+01
      endloop
   endfacet
   facet normal -1.000000e+00 -3.755005e-16 1.133469e-16
      outer loop
         vertex -1.909493e-15 1.988227e+00 -1.111956e+01
         vertex 2.404973e-15 -2.619788e+00 1.167907e+01
         vertex -2.468752e-15 3.099096e+00 -1.237347e+01
      endloop
   endfacet
   facet normal -1.000000e+00 -2.938792e-16 1.327537e-16
      outer loop
         vertex 2.404973e-15 -2.619788e+00 1.167907e+01
         vertex 1.873478e-15 -1.241117e+00 1.072744e+01
         vertex -2.468752e-15 3.099096e+00 -1.237347e+01
      endloop
   endfacet
   facet normal -1.000000e+00 2.168857e-16 2.287165e-16
      outer loop
         vertex -2.468752e-15 3.099096e+00 -1.237347e+01
         vertex 1.873478e-15 -1.241117e+00 1.072744e+01
         vertex -4.041334e-15 6.000000e+00 -2.200000e+01
      endloop
   endfacet
   facet normal -1.000000e+00 1.108995e-17 1.831832e-16
      outer loop
         vertex 1.873478e-15 -1.241117e+00 1.072744e+01
         vertex 1.854932e-15 4.218784e-01 1.052552e+01
         vertex -4.041334e-15 6.000000e+00 -2.200000e+01
      endloop
   endfacet
   facet normal -1.000000e+00 -3.184602e-17 1.758196e-16
      outer loop
         vertex 1.854932e-15 4.218784e-01 1.052552e+01
         vertex 1.909493e-15 1.988227e+00 1.111956e+01
         vertex -4.041334e-15 6.000000e+00 -2.200000e+01
      endloop
   endfacet
   facet normal -1.000000e+00 2.644689e-16 2.117123e-16
      outer loop
         vertex 1.909493e-15 1.988227e+00 1.111956e+01
         vertex 2.468752e-15 3.099096e+00 1.237347e+01
         vertex -4.041334e-15 6.000000e+00 -2.200000e+01
      endloop
   endfacet
   facet normal -1.000000e+00 -2.086136e-16 1.717871e-16
      outer loop
         vertex 2.468752e-15 3.099096e+00 1.237347e+01
         vertex 2.664535e-15 3.500000e+00 1.400000e+01
         vertex -4.041334e-15 6.000000e+00 -2.200000e+01
      endloop
   endfacet
   facet normal -1.000000e+00 -3.881140e-17 1.122184e-16
      outer loop
         vertex 2.695079e-15 -3.398296e+00 1.483760e+01
         vertex 3.829318e-15 -1.089687e+01 2.235160e+01
         vertex 2.831321e-15 -2.619788e+00 1.632093e+01
      endloop
   endfacet
   facet normal -1.000000e+00 1.393088e-16 3.566877e-16
      outer loop
         vertex 2.831321e-15 -2.619788e+00 1.632093e+01
         vertex 3.829318e-15 -1.089687e+01 2.235160e+01
         vertex 3.362815e-15 -1.241117e+00 1.727256e+01
      endloop
   endfacet
   facet normal -1.000000e+00 2.154840e-17 1.328140e-16
      outer loop
         vertex 3.829318e-15 -1.089687e+01 2.235160e+01
         vertex 5.510911e-15 2.000000e+01 3.000000e+01
         vertex 3.362815e-15 -1.241117e+00 1.727256e+01
      endloop
   endfacet
   facet normal -1.000000e+00 -1.171484e-17 1.883278e-16
      outer loop
         vertex 3.362815e-15 -1.241117e+00 1.727256e+01
         vertex 5.510911e-15 2.000000e+01 3.000000e+01
         vertex 3.381362e-15 4.218784e-01 1.747448e+01
      endloop
   endfacet
   facet normal -1.000000e+00 -1.708692e-16 4.370955e-16
      outer loop
         vertex 5.510911e-15 2.000000e+01 3.000000e+01
         vertex 3.878712e-15 1.136285e+01 2.288937e+01
         vertex 3.381362e-15 4.218784e-01 1.747448e+01
      endloop
   endfacet
   facet normal -1.000000e+00 3.329587e-23 9.184845e-17
      outer loop
         vertex 3.381362e-15 4.218784e-01 1.747448e+01
         vertex 3.878712e-15 1.136285e+01 2.288937e+01
         vertex 3.326800e-15 1.988227e+00 1.688044e+01
      endloop
   endfacet
   facet normal -1.000000e+00 2.689073e-22 9.184808e-17
      outer loop
         vertex 3.878712e-15 1.136285e+01 2.288937e+01
         vertex 3.769868e-15 1.060127e+01 2.170433e+01
         vertex 3.326800e-15 1.988227e+00 1.688044e+01
      endloop
   endfacet
   facet normal -1.000000e+00 -1.325747e-16 3.285604e-16
      outer loop
         vertex 3.326800e-15 1.988227e+00 1.688044e+01
         vertex 3.769868e-15 1.060127e+01 2.170433e+01
         vertex 2.767541e-15 3.099096e+00 1.562653e+01
      endloop
   endfacet
   facet normal -1.000000e+00 5.919452e-17 9.184883e-17
      outer loop
         vertex 3.769868e-15 1.060127e+01 2.170433e+01
         vertex 3.640484e-15 1.060127e+01 2.029567e+01
         vertex 2.767541e-15 3.099096e+00 1.562653e+01
      endloop
   endfacet
   facet normal -1.000000e+00 6.671113e-17 7.977147e-17
      outer loop
         vertex 2.767541e-15 3.099096e+00 1.562653e+01
         vertex 3.640484e-15 1.060127e+01 2.029567e+01
         vertex 2.664535e-15 3.500000e+00 1.400000e+01
      endloop
   endfacet
   facet normal -1.000000e+00 3.567707e-17 1.147767e-16
      outer loop
         vertex 3.640484e-15 1.060127e+01 2.029567e+01
         vertex 3.531639e-15 1.136285e+01 1.911063e+01
         vertex 2.664535e-15 3.500000e+00 1.400000e+01
      endloop
   endfacet
   facet normal -1.000000e+00 -1.032807e-17 1.855569e-16
      outer loop
         vertex 2.664535e-15 3.500000e+00 1.400000e+01
         vertex 3.531639e-15 1.136285e+01 1.911063e+01
         vertex -4.041334e-15 6.000000e+00 -2.200000e+01
      endloop
   endfacet
   facet normal -1.000000e+00 -2.872807e-16 2.216852e-16
      outer loop
         vertex 3.531639e-15 1.136285e+01 1.911063e+01
         vertex 3.033802e-15 1.264421e+01 1.852545e+01
         vertex -4.041334e-15 6.000000e+00 -2.200000e+01
      endloop
   endfacet
   facet normal -1.000000e+00 -5.557737e-17 1.836970e-16
      outer loop
         vertex -4.041334e-15 6.000000e+00 -2.200000e+01
         vertex 3.033802e-15 1.264421e+01 1.852545e+01
         vertex -5.510911e-15 6.000000e+00 -3.000000e+01
      endloop
   endfacet
   facet normal -1.000000e+00 3.125386e-16 1.332938e-16
      outer loop
         vertex 3.033802e-15 1.264421e+01 1.852545e+01
         vertex 3.496305e-15 1.403854e+01 1.872592e+01
         vertex -5.510911e-15 6.000000e+00 -3.000000e+01
      endloop
   endfacet
   facet normal -1.000000e+00 0.000000e+00 2.295436e-16
      outer loop
         vertex -5.510911e-15 6.000000e+00 -3.000000e+01
         vertex -3.878712e-15 1.136285e+01 -2.288937e+01
         vertex -5.510911e-15 2.000000e+01 -3.000000e+01
      endloop
   endfacet
   facet normal -1.000000e+00 -6.371200e-16 -5.443548e-16
      outer loop
         vertex -3.878712e-15 1.136285e+01 -2.288937e+01
         vertex -4.376549e-15 1.264421e+01 -2.347455e+01
         vertex -5.510911e-15 2.000000e+01 -3.000000e+01
      endloop
   endfacet
   facet normal -1.000000e+00 -6.776085e-17 1.836970e-16
      outer loop
         vertex -5.510911e-15 2.000000e+01 -3.000000e+01
         vertex -3.552714e-15 1.550000e+01 -2.100000e+01
         vertex 5.510911e-15 2.000000e+01 3.000000e+01
      endloop
   endfacet
   facet normal -1.000000e+00 5.202685e-16 1.318121e-16
      outer loop
         vertex -3.552714e-15 1.550000e+01 -2.100000e+01
         vertex -3.581033e-15 1.510313e+01 -1.964840e+01
         vertex 5.510911e-15 2.000000e+01 3.000000e+01
      endloop
   endfacet
   facet normal -1.000000e+00 1.628995e-17 2.094325e-16
      outer loop
         vertex 5.510911e-15 2.000000e+01 3.000000e+01
         vertex 3.552714e-15 1.550000e+01 2.100000e+01
         vertex 3.829318e-15 1.510313e+01 2.235160e+01
      endloop
   endfacet
   facet normal -1.000000e+00 1.155814e-15 -3.603296e-16
      outer loop
         vertex 3.552714e-15 1.550000e+01 2.100000e+01
         vertex 5.510911e-15 2.000000e+01 3.000000e+01
         vertex 3.581033e-15 1.510313e+01 1.964840e+01
      endloop
   endfacet
   facet normal -1.000000e+00 8.829914e-18 1.822557e-16
      outer loop
         vertex 5.510911e-15 2.000000e+01 3.000000e+01
         vertex -3.581033e-15 1.510313e+01 -1.964840e+01
         vertex 3.581033e-15 1.510313e+01 1.964840e+01
      endloop
   endfacet
   facet normal -1.000000e+00 -7.833822e-17 1.822557e-16
      outer loop
         vertex 3.581033e-15 1.510313e+01 1.964840e+01
         vertex -3.581033e-15 1.510313e+01 -1.964840e+01
         vertex 3.496305e-15 1.403854e+01 1.872592e+01
      endloop
   endfacet
   facet normal -1.000000e+00 8.219732e-17 1.867094e-16
      outer loop
         vertex -3.581033e-15 1.510313e+01 -1.964840e+01
         vertex -3.496305e-15 1.403854e+01 -1.872592e+01
         vertex 3.496305e-15 1.403854e+01 1.872592e+01
      endloop
   endfacet
   facet normal -1.000000e+00 2.550943e-17 1.806463e-16
      outer loop
         vertex 3.496305e-15 1.403854e+01 1.872592e+01
         vertex -3.640484e-15 1.060127e+01 -2.029567e+01
         vertex -5.510911e-15 6.000000e+00 -3.000000e+01
      endloop
   endfacet
   facet normal -1.000000e+00 2.127882e-16 9.184883e-17
      outer loop
         vertex -3.640484e-15 1.060127e+01 -2.029567e+01
         vertex -3.769868e-15 1.060127e+01 -2.170433e+01
         vertex -5.510911e-15 6.000000e+00 -3.000000e+01
      endloop
   endfacet
   facet normal -1.000000e+00 -1.641709e-16 1.973545e-16
      outer loop
         vertex -3.640484e-15 1.060127e+01 -2.029567e+01
         vertex 3.496305e-15 1.403854e+01 1.872592e+01
         vertex -3.531639e-15 1.136285e+01 -1.911063e+01
      endloop
   endfacet
   facet normal -1.000000e+00 -1.628995e-17 2.094325e-16
      outer loop
         vertex -3.552714e-15 1.550000e+01 -2.100000e+01
         vertex -5.510911e-15 2.000000e+01 -3.000000e+01
         vertex -3.829318e-15 1.510313e+01 -2.235160e+01
      endloop
   endfacet
   facet normal -1.000000e+00 -7.134416e-17 1.741842e-16
      outer loop
         vertex -5.510911e-15 2.000000e+01 -3.000000e+01
         vertex -3.914046e-15 1.403854e+01 -2.327408e+01
         vertex -3.829318e-15 1.510313e+01 -2.235160e+01
      endloop
   endfacet
   facet normal -1.000000e+00 2.639329e-16 4.713541e-16
      outer loop
         vertex -3.914046e-15 1.403854e+01 -2.327408e+01
         vertex -5.510911e-15 2.000000e+01 -3.000000e+01
         vertex -4.376549e-15 1.264421e+01 -2.347455e+01
      endloop
   endfacet
   facet normal -1.000000e+00 6.371200e-16 -5.443548e-16
      outer loop
         vertex 3.878712e-15 1.136285e+01 2.288937e+01
         vertex 5.510911e-15 2.000000e+01 3.000000e+01
         vertex 4.376549e-15 1.264421e+01 2.347455e+01
      endloop
   endfacet
   facet normal -1.000000e+00 -5.287974e-17 4.819017e-16
      outer loop
         vertex -3.362815e-15 -1.241117e+00 -1.727256e+01
         vertex -3.496305e-15 -1.196146e+01 -1.872592e+01
         vertex -2.831321e-15 -2.619788e+00 -1.632093e+01
      endloop
   endfacet
   facet normal -1.000000e+00 9.857477e-17 1.551984e-16
      outer loop
         vertex -3.878712e-15 -1.463715e+01 -2.288937e+01
         vertex -5.510911e-15 -2.000000e+01 -3.000000e+01
         vertex -3.769868e-15 -1.539873e+01 -2.170433e+01
      endloop
   endfacet
   facet normal -1.000000e+00 2.639329e-16 4.713541e-16
      outer loop
         vertex -3.914046e-15 -1.196146e+01 -2.327408e+01
         vertex -5.510911e-15 -6.000000e+00 -3.000000e+01
         vertex -4.376549e-15 -1.335579e+01 -2.347455e+01
      endloop
   endfacet
   facet normal -1.000000e+00 9.857477e-17 1.551984e-16
      outer loop
         vertex -3.878712e-15 1.136285e+01 -2.288937e+01
         vertex -5.510911e-15 6.000000e+00 -3.000000e+01
         vertex -3.769868e-15 1.060127e+01 -2.170433e+01
      endloop
   endfacet
   facet normal -1.000000e+00 -2.639329e-16 4.713541e-16
      outer loop
         vertex 4.376549e-15 1.264421e+01 2.347455e+01
         vertex 5.510911e-15 2.000000e+01 3.000000e+01
         vertex 3.914046e-15 1.403854e+01 2.327408e+01
      endloop
   endfacet
   facet normal -1.000000e+00 7.134416e-17 1.741842e-16
      outer loop
         vertex 5.510911e-15 2.000000e+01 3.000000e+01
         vertex 3.829318e-15 1.510313e+01 2.235160e+01
         vertex 3.914046e-15 1.403854e+01 2.327408e+01
      endloop
   endfacet
   facet normal -1.000000e+00 4.187973e-17 1.138288e-16
      outer loop
         vertex -2.831321e-15 -2.619788e+00 -1.632093e+01
         vertex -3.496305e-15 -1.196146e+01 -1.872592e+01
         vertex -2.695079e-15 -3.398296e+00 -1.483760e+01
      endloop
   endfacet
   facet normal -1.000000e+00 -5.922320e-17 9.184850e-17
      outer loop
         vertex 2.541214e-15 -3.398296e+00 1.316240e+01
         vertex 3.829318e-15 -1.089687e+01 2.235160e+01
         vertex 2.695079e-15 -3.398296e+00 1.483760e+01
      endloop
   endfacet
   facet normal -1.000000e+00 3.138294e-16 1.635518e-16
      outer loop
         vertex -3.531639e-15 1.136285e+01 -1.911063e+01
         vertex 3.496305e-15 1.403854e+01 1.872592e+01
         vertex -3.033802e-15 1.264421e+01 -1.852545e+01
      endloop
   endfacet
   facet normal -1.000000e+00 -3.048586e-16 1.867094e-16
      outer loop
         vertex 3.496305e-15 1.403854e+01 1.872592e+01
         vertex -3.496305e-15 1.403854e+01 -1.872592e+01
         vertex -3.033802e-15 1.264421e+01 -1.852545e+01
      endloop
   endfacet
   facet normal 1.000000e+00 0.000000e+00 0.000000e+00
      outer loop
         vertex 3.000000e+00 -6.000000e+00 3.700000e+01
         vertex 3.000000e+00 -6.000000e+00 3.000000e+01
         vertex 3.000000e+00 6.000000e+00 3.700000e+01
      endloop
   endfacet
   facet normal 1.000000e+00 0.000000e+00 -0.000000e+00
      outer loop
         vertex 3.000000e+00 -2.000000e+01 3.000000e+01
         vertex 3.000000e+00 -1.463715e+01 2.288937e+01
         vertex 3.000000e+00 -6.000000e+00 3.000000e+01
      endloop
   endfacet
   facet normal 1.000000e+00 0.000000e+00 0.000000e+00
      outer loop
         vertex 3.000000e+00 -6.000000e+00 3.000000e+01
         vertex 3.000000e+00 -1.463715e+01 2.288937e+01
         vertex 3.000000e+00 6.000000e+00 3.700000e+01
      endloop
   endfacet
   facet normal 1.000000e+00 0.000000e+00 -0.000000e+00
      outer loop
         vertex 3.000000e+00 -1.463715e+01 2.288937e+01
         vertex 3.000000e+00 -1.335579e+01 2.347455e+01
         vertex 3.000000e+00 6.000000e+00 3.700000e+01
      endloop
   endfacet
   facet normal 1.000000e+00 0.000000e+00 0.000000e+00
      outer loop
         vertex 3.000000e+00 6.000000e+00 3.700000e+01
         vertex 3.000000e+00 -1.335579e+01 2.347455e+01
         vertex 3.000000e+00 6.000000e+00 3.000000e+01
      endloop
   endfacet
   facet normal 1.000000e+00 0.000000e+00 -0.000000e+00
      outer loop
         vertex 3.000000e+00 -1.335579e+01 2.347455e+01
         vertex 3.000000e+00 -1.196146e+01 2.327408e+01
         vertex 3.000000e+00 6.000000e+00 3.000000e+01
      endloop
   endfacet
   facet normal 1.000000e+00 0.000000e+00 0.000000e+00
      outer loop
         vertex 3.000000e+00 6.000000e+00 3.000000e+01
         vertex 3.000000e+00 -1.196146e+01 2.327408e+01
         vertex 3.000000e+00 2.000000e+01 3.000000e+01
      endloop
   endfacet
   facet normal 1.000000e+00 0.000000e+00 -0.000000e+00
      outer loop
         vertex 3.000000e+00 -1.196146e+01 2.327408e+01
         vertex 3.000000e+00 -1.089687e+01 2.235160e+01
         vertex 3.000000e+00 2.000000e+01 3.000000e+01
      endloop
   endfacet
   facet normal 1.000000e+00 -0.000000e+00 0.000000e+00
      outer loop
         vertex 3.000000e+00 2.000000e+01 3.000000e+01
         vertex 3.000000e+00 1.550000e+01 2.100000e+01
         vertex 3.000000e+00 2.000000e+01 -3.000000e+01
      endloop
   endfacet
   facet normal 1.000000e+00 -0.000000e+00 0.000000e+00
      outer loop
         vertex 3.000000e+00 1.550000e+01 2.100000e+01
         vertex 3.000000e+00 1.510313e+01 1.964840e+01
         vertex 3.000000e+00 2.000000e+01 -3.000000e+01
      endloop
   endfacet
   facet normal 1.000000e+00 0.000000e+00 0.000000e+00
      outer loop
         vertex 3.000000e+00 2.000000e+01 -3.000000e+01
         vertex 3.000000e+00 1.403854e+01 -2.327408e+01
         vertex 3.000000e+00 6.000000e+00 -3.000000e+01
      endloop
   endfacet
   facet normal 1.000000e+00 -0.000000e+00 0.000000e+00
      outer loop
         vertex 3.000000e+00 1.403854e+01 -2.327408e+01
         vertex 3.000000e+00 1.264421e+01 -2.347455e+01
         vertex 3.000000e+00 6.000000e+00 -3.000000e+01
      endloop
   endfacet
   facet normal 1.000000e+00 0.000000e+00 0.000000e+00
      outer loop
         vertex 3.000000e+00 6.000000e+00 -3.000000e+01
         vertex 3.000000e+00 1.264421e+01 -2.347455e+01
         vertex 3.000000e+00 6.000000e+00 -2.200000e+01
      endloop
   endfacet
   facet normal 1.000000e+00 0.000000e+00 0.000000e+00
      outer loop
         vertex 3.000000e+00 1.264421e+01 -2.347455e+01
         vertex 3.000000e+00 1.136285e+01 -2.288937e+01
         vertex 3.000000e+00 6.000000e+00 -2.200000e+01
      endloop
   endfacet
   facet normal 1.000000e+00 0.000000e+00 0.000000e+00
      outer loop
         vertex 3.000000e+00 1.136285e+01 -2.288937e+01
         vertex 3.000000e+00 1.060127e+01 -2.170433e+01
         vertex 3.000000e+00 6.000000e+00 -2.200000e+01
      endloop
   endfacet
   facet normal 1.000000e+00 0.000000e+00 0.000000e+00
      outer loop
         vertex 3.000000e+00 1.060127e+01 -2.170433e+01
         vertex 3.000000e+00 1.060127e+01 -2.029567e+01
         vertex 3.000000e+00 6.000000e+00 -2.200000e+01
      endloop
   endfacet
   facet normal 1.000000e+00 0.000000e+00 0.000000e+00
      outer loop
         vertex 3.000000e+00 6.000000e+00 -2.200000e+01
         vertex 3.000000e+00 1.060127e+01 -2.029567e+01
         vertex 3.000000e+00 -6.000000e+00 -2.200000e+01
      endloop
   endfacet
   facet normal 1.000000e+00 0.000000e+00 0.000000e+00
      outer loop
         vertex 3.000000e+00 1.060127e+01 -2.029567e+01
         vertex 3.000000e+00 1.136285e+01 -1.911063e+01
         vertex 3.000000e+00 -6.000000e+00 -2.200000e+01
      endloop
   endfacet
   facet normal 1.000000e+00 0.000000e+00 0.000000e+00
      outer loop
         vertex 3.000000e+00 1.136285e+01 -1.911063e+01
         vertex 3.000000e+00 1.264421e+01 -1.852545e+01
         vertex 3.000000e+00 -6.000000e+00 -2.200000e+01
      endloop
   endfacet
   facet normal 1.000000e+00 0.000000e+00 0.000000e+00
      outer loop
         vertex 3.000000e+00 1.550000e+01 -2.100000e+01
         vertex 3.000000e+00 2.000000e+01 -3.000000e+01
         vertex 3.000000e+00 1.510313e+01 -1.964840e+01
      endloop
   endfacet
   facet normal 1.000000e+00 0.000000e+00 0.000000e+00
      outer loop
         vertex 3.000000e+00 2.000000e+01 -3.000000e+01
         vertex 3.000000e+00 1.510313e+01 1.964840e+01
         vertex 3.000000e+00 1.510313e+01 -1.964840e+01
      endloop
   endfacet
   facet normal 1.000000e+00 -0.000000e+00 0.000000e+00
      outer loop
         vertex 3.000000e+00 1.510313e+01 1.964840e+01
         vertex 3.000000e+00 1.403854e+01 1.872592e+01
         vertex 3.000000e+00 1.510313e+01 -1.964840e+01
      endloop
   endfacet
   facet normal 1.000000e+00 0.000000e+00 0.000000e+00
      outer loop
         vertex 3.000000e+00 1.510313e+01 -1.964840e+01
         vertex 3.000000e+00 1.403854e+01 1.872592e+01
         vertex 3.000000e+00 1.403854e+01 -1.872592e+01
      endloop
   endfacet
   facet normal 1.000000e+00 -0.000000e+00 0.000000e+00
      outer loop
         vertex 3.000000e+00 1.403854e+01 1.872592e+01
         vertex 3.000000e+00 1.264421e+01 1.852545e+01
         vertex 3.000000e+00 1.403854e+01 -1.872592e+01
      endloop
   endfacet
   facet normal 1.000000e+00 0.000000e+00 0.000000e+00
      outer loop
         vertex 3.000000e+00 1.403854e+01 -1.872592e+01
         vertex 3.000000e+00 1.264421e+01 1.852545e+01
         vertex 3.000000e+00 1.264421e+01 -1.852545e+01
      endloop
   endfacet
   facet normal 1.000000e+00 0.000000e+00 0.000000e+00
      outer loop
         vertex 3.000000e+00 1.264421e+01 1.852545e+01
         vertex 3.000000e+00 1.136285e+01 1.911063e+01
         vertex 3.000000e+00 1.264421e+01 -1.852545e+01
      endloop
   endfacet
   facet normal 1.000000e+00 0.000000e+00 0.000000e+00
      outer loop
         vertex 3.000000e+00 1.264421e+01 -1.852545e+01
         vertex 3.000000e+00 1.988227e+00 -1.688044e+01
         vertex 3.000000e+00 -6.000000e+00 -2.200000e+01
      endloop
   endfacet
   facet normal 1.000000e+00 -0.000000e+00 0.000000e+00
      outer loop
         vertex 3.000000e+00 1.988227e+00 -1.688044e+01
         vertex 3.000000e+00 4.218784e-01 -1.747448e+01
         vertex 3.000000e+00 -6.000000e+00 -2.200000e+01
      endloop
   endfacet
   facet normal 1.000000e+00 0.000000e+00 0.000000e+00
      outer loop
         vertex 3.000000e+00 4.218784e-01 -1.747448e+01
         vertex 3.000000e+00 -1.241117e+00 -1.727256e+01
         vertex 3.000000e+00 -6.000000e+00 -2.200000e+01
      endloop
   endfacet
   facet normal 1.000000e+00 0.000000e+00 0.000000e+00
      outer loop
         vertex 3.000000e+00 -1.241117e+00 -1.727256e+01
         vertex 3.000000e+00 -2.619788e+00 -1.632093e+01
         vertex 3.000000e+00 -6.000000e+00 -2.200000e+01
      endloop
   endfacet
   facet normal 1.000000e+00 0.000000e+00 0.000000e+00
      outer loop
         vertex 3.000000e+00 -2.619788e+00 -1.632093e+01
         vertex 3.000000e+00 -3.398296e+00 -1.483760e+01
         vertex 3.000000e+00 -6.000000e+00 -2.200000e+01
      endloop
   endfacet
   facet normal 1.000000e+00 0.000000e+00 0.000000e+00
      outer loop
         vertex 3.000000e+00 -3.398296e+00 -1.483760e+01
         vertex 3.000000e+00 -3.398296e+00 -1.316240e+01
         vertex 3.000000e+00 -6.000000e+00 -2.200000e+01
      endloop
   endfacet
   facet normal 1.000000e+00 0.000000e+00 0.000000e+00
      outer loop
         vertex 3.000000e+00 3.099096e+00 -1.562653e+01
         vertex 3.000000e+00 1.264421e+01 -1.852545e+01
         vertex 3.000000e+00 3.500000e+00 -1.400000e+01
      endloop
   endfacet
   facet normal 1.000000e+00 0.000000e+00 0.000000e+00
      outer loop
         vertex 3.000000e+00 1.264421e+01 -1.852545e+01
         vertex 3.000000e+00 1.136285e+01 1.911063e+01
         vertex 3.000000e+00 3.500000e+00 -1.400000e+01
      endloop
   endfacet
   facet normal 1.000000e+00 0.000000e+00 0.000000e+00
      outer loop
         vertex 3.000000e+00 3.500000e+00 -1.400000e+01
         vertex 3.000000e+00 1.136285e+01 1.911063e+01
         vertex 3.000000e+00 3.099096e+00 -1.237347e+01
      endloop
   endfacet
   facet normal 1.000000e+00 0.000000e+00 0.000000e+00
      outer loop
         vertex 3.000000e+00 1.136285e+01 1.911063e+01
         vertex 3.000000e+00 1.060127e+01 2.029567e+01
         vertex 3.000000e+00 3.099096e+00 -1.237347e+01
      endloop
   endfacet
   facet normal 1.000000e+00 0.000000e+00 0.000000e+00
      outer loop
         vertex 3.000000e+00 3.099096e+00 -1.237347e+01
         vertex 3.000000e+00 1.060127e+01 2.029567e+01
         vertex 3.000000e+00 1.988227e+00 -1.111956e+01
      endloop
   endfacet
   facet normal 1.000000e+00 0.000000e+00 0.000000e+00
      outer loop
         vertex 3.000000e+00 1.060127e+01 2.029567e+01
         vertex 3.000000e+00 1.060127e+01 2.170433e+01
         vertex 3.000000e+00 1.988227e+00 -1.111956e+01
      endloop
   endfacet
   facet normal 1.000000e+00 0.000000e+00 0.000000e+00
      outer loop
         vertex 3.000000e+00 1.988227e+00 -1.111956e+01
         vertex 3.000000e+00 1.060127e+01 2.170433e+01
         vertex 3.000000e+00 4.218784e-01 -1.052552e+01
      endloop
   endfacet
   facet normal 1.000000e+00 0.000000e+00 0.000000e+00
      outer loop
         vertex 3.000000e+00 1.510313e+01 2.235160e+01
         vertex 3.000000e+00 2.000000e+01 3.000000e+01
         vertex 3.000000e+00 1.403854e+01 2.327408e+01
      endloop
   endfacet
   facet normal 1.000000e+00 0.000000e+00 0.000000e+00
      outer loop
         vertex 3.000000e+00 1.403854e+01 2.327408e+01
         vertex 3.000000e+00 2.000000e+01 3.000000e+01
         vertex 3.000000e+00 1.264421e+01 2.347455e+01
      endloop
   endfacet
   facet normal 1.000000e+00 0.000000e+00 0.000000e+00
      outer loop
         vertex 3.000000e+00 2.000000e+01 3.000000e+01
         vertex 3.000000e+00 -1.089687e+01 2.235160e+01
         vertex 3.000000e+00 1.264421e+01 2.347455e+01
      endloop
   endfacet
   facet normal 1.000000e+00 0.000000e+00 0.000000e+00
      outer loop
         vertex 3.000000e+00 1.264421e+01 2.347455e+01
         vertex 3.000000e+00 -1.089687e+01 2.235160e+01
         vertex 3.000000e+00 1.136285e+01 2.288937e+01
      endloop
   endfacet
   facet normal 1.000000e+00 0.000000e+00 -0.000000e+00
      outer loop
         vertex 3.000000e+00 -1.089687e+01 2.235160e+01
         vertex 3.000000e+00 -1.050000e+01 2.100000e+01
         vertex 3.000000e+00 1.136285e+01 2.288937e+01
      endloop
   endfacet
   facet normal 1.000000e+00 0.000000e+00 0.000000e+00
      outer loop
         vertex 3.000000e+00 1.136285e+01 2.288937e+01
         vertex 3.000000e+00 -1.050000e+01 2.100000e+01
         vertex 3.000000e+00 1.060127e+01 2.170433e+01
      endloop
   endfacet
   facet normal 1.000000e+00 0.000000e+00 0.000000e+00
      outer loop
         vertex 3.000000e+00 -1.050000e+01 2.100000e+01
         vertex 3.000000e+00 -1.089687e+01 1.964840e+01
         vertex 3.000000e+00 1.060127e+01 2.170433e+01
      endloop
   endfacet
   facet normal 1.000000e+00 -0.000000e+00 0.000000e+00
      outer loop
         vertex 3.000000e+00 1.060127e+01 2.170433e+01
         vertex 3.000000e+00 3.500000e+00 1.400000e+01
         vertex 3.000000e+00 4.218784e-01 -1.052552e+01
      endloop
   endfacet
   facet normal 1.000000e+00 -0.000000e+00 0.000000e+00
      outer loop
         vertex 3.000000e+00 3.500000e+00 1.400000e+01
         vertex 3.000000e+00 3.099096e+00 1.237347e+01
         vertex 3.000000e+00 4.218784e-01 -1.052552e+01
      endloop
   endfacet
   facet normal 1.000000e+00 0.000000e+00 0.000000e+00
      outer loop
         vertex 3.000000e+00 4.218784e-01 -1.052552e+01
         vertex 3.000000e+00 3.099096e+00 1.237347e+01
         vertex 3.000000e+00 -1.241117e+00 -1.072744e+01
      endloop
   endfacet
   facet normal 1.000000e+00 -0.000000e+00 0.000000e+00
      outer loop
         vertex 3.000000e+00 3.099096e+00 1.237347e+01
         vertex 3.000000e+00 1.988227e+00 1.111956e+01
         vertex 3.000000e+00 -1.241117e+00 -1.072744e+01
      endloop
   endfacet
   facet normal 1.000000e+00 0.000000e+00 0.000000e+00
      outer loop
         vertex 3.000000e+00 -1.241117e+00 -1.072744e+01
         vertex 3.000000e+00 1.988227e+00 1.111956e+01
         vertex 3.000000e+00 -2.619788e+00 -1.167907e+01
      endloop
   endfacet
   facet normal 1.000000e+00 -0.000000e+00 0.000000e+00
      outer loop
         vertex 3.000000e+00 1.988227e+00 1.111956e+01
         vertex 3.000000e+00 4.218784e-01 1.052552e+01
         vertex 3.000000e+00 -2.619788e+00 -1.167907e+01
      endloop
   endfacet
   facet normal 1.000000e+00 0.000000e+00 0.000000e+00
      outer loop
         vertex 3.000000e+00 -2.619788e+00 -1.167907e+01
         vertex 3.000000e+00 4.218784e-01 1.052552e+01
         vertex 3.000000e+00 -3.398296e+00 -1.316240e+01
      endloop
   endfacet
   facet normal 1.000000e+00 0.000000e+00 0.000000e+00
      outer loop
         vertex 3.000000e+00 4.218784e-01 1.052552e+01
         vertex 3.000000e+00 -1.241117e+00 1.072744e+01
         vertex 3.000000e+00 -3.398296e+00 -1.316240e+01
      endloop
   endfacet
   facet normal 1.000000e+00 0.000000e+00 0.000000e+00
      outer loop
         vertex 3.000000e+00 -3.398296e+00 -1.316240e+01
         vertex 3.000000e+00 -1.241117e+00 1.072744e+01
         vertex 3.000000e+00 -6.000000e+00 -2.200000e+01
      endloop
   endfacet
   facet normal 1.000000e+00 0.000000e+00 0.000000e+00
      outer loop
         vertex 3.000000e+00 -1.241117e+00 1.072744e+01
         vertex 3.000000e+00 -2.619788e+00 1.167907e+01
         vertex 3.000000e+00 -6.000000e+00 -2.200000e+01
      endloop
   endfacet
   facet normal 1.000000e+00 0.000000e+00 0.000000e+00
      outer loop
         vertex 3.000000e+00 -2.619788e+00 1.167907e+01
         vertex 3.000000e+00 -3.398296e+00 1.316240e+01
         vertex 3.000000e+00 -6.000000e+00 -2.200000e+01
      endloop
   endfacet
   facet normal 1.000000e+00 0.000000e+00 0.000000e+00
      outer loop
         vertex 3.000000e+00 -3.398296e+00 1.316240e+01
         vertex 3.000000e+00 -3.398296e+00 1.483760e+01
         vertex 3.000000e+00 -6.000000e+00 -2.200000e+01
      endloop
   endfacet
   facet normal 1.000000e+00 0.000000e+00 0.000000e+00
      outer loop
         vertex 3.000000e+00 3.099096e+00 1.562653e+01
         vertex 3.000000e+00 1.060127e+01 2.170433e+01
         vertex 3.000000e+00 1.988227e+00 1.688044e+01
      endloop
   endfacet
   facet normal 1.000000e+00 -0.000000e+00 0.000000e+00
      outer loop
         vertex 3.000000e+00 1.060127e+01 2.170433e+01
         vertex 3.000000e+00 4.218784e-01 1.747448e+01
         vertex 3.000000e+00 1.988227e+00 1.688044e+01
      endloop
   endfacet
   facet normal 1.000000e+00 0.000000e+00 0.000000e+00
      outer loop
         vertex 3.000000e+00 4.218784e-01 1.747448e+01
         vertex 3.000000e+00 1.060127e+01 2.170433e+01
         vertex 3.000000e+00 -1.241117e+00 1.727256e+01
      endloop
   endfacet
   facet normal 1.000000e+00 -0.000000e+00 0.000000e+00
      outer loop
         vertex 3.000000e+00 1.060127e+01 2.170433e+01
         vertex 3.000000e+00 -1.089687e+01 1.964840e+01
         vertex 3.000000e+00 -1.241117e+00 1.727256e+01
      endloop
   endfacet
   facet normal 1.000000e+00 0.000000e+00 0.000000e+00
      outer loop
         vertex 3.000000e+00 -1.241117e+00 1.727256e+01
         vertex 3.000000e+00 -1.089687e+01 1.964840e+01
         vertex 3.000000e+00 -2.619788e+00 1.632093e+01
      endloop
   endfacet
   facet normal 1.000000e+00 -0.000000e+00 0.000000e+00
      outer loop
         vertex 3.000000e+00 -1.089687e+01 1.964840e+01
         vertex 3.000000e+00 -1.196146e+01 1.872592e+01
         vertex 3.000000e+00 -2.619788e+00 1.632093e+01
      endloop
   endfacet
   facet normal 1.000000e+00 0.000000e+00 0.000000e+00
      outer loop
         vertex 3.000000e+00 -2.619788e+00 1.632093e+01
         vertex 3.000000e+00 -1.196146e+01 1.872592e+01
         vertex 3.000000e+00 -3.398296e+00 1.483760e+01
      endloop
   endfacet
   facet normal 1.000000e+00 -0.000000e+00 0.000000e+00
      outer loop
         vertex 3.000000e+00 -1.196146e+01 1.872592e+01
         vertex 3.000000e+00 -1.335579e+01 1.852545e+01
         vertex 3.000000e+00 -3.398296e+00 1.483760e+01
      endloop
   endfacet
   facet normal 1.000000e+00 0.000000e+00 0.000000e+00
      outer loop
         vertex 3.000000e+00 -3.398296e+00 1.483760e+01
         vertex 3.000000e+00 -1.335579e+01 1.852545e+01
         vertex 3.000000e+00 -6.000000e+00 -2.200000e+01
      endloop
   endfacet
   facet normal 1.000000e+00 0.000000e+00 0.000000e+00
      outer loop
         vertex 3.000000e+00 -1.335579e+01 1.852545e+01
         vertex 3.000000e+00 -1.463715e+01 1.911063e+01
         vertex 3.000000e+00 -6.000000e+00 -2.200000e+01
      endloop
   endfacet
   facet normal 1.000000e+00 0.000000e+00 0.000000e+00
      outer loop
         vertex 3.000000e+00 -6.000000e+00 -2.200000e+01
         vertex 3.000000e+00 -1.463715e+01 1.911063e+01
         vertex 3.000000e+00 -6.000000e+00 -3.000000e+01
      endloop
   endfacet
   facet normal 1.000000e+00 0.000000e+00 0.000000e+00
      outer loop
         vertex 3.000000e+00 -1.463715e+01 1.911063e+01
         vertex 3.000000e+00 -1.539873e+01 2.029567e+01
         vertex 3.000000e+00 -6.000000e+00 -3.000000e+01
      endloop
   endfacet
   facet normal 1.000000e+00 0.000000e+00 0.000000e+00
      outer loop
         vertex 3.000000e+00 -6.000000e+00 -3.000000e+01
         vertex 3.000000e+00 -1.196146e+01 -2.327408e+01
         vertex 3.000000e+00 -2.000000e+01 -3.000000e+01
      endloop
   endfacet
   facet normal 1.000000e+00 -0.000000e+00 0.000000e+00
      outer loop
         vertex 3.000000e+00 -1.196146e+01 -2.327408e+01
         vertex 3.000000e+00 -1.335579e+01 -2.347455e+01
         vertex 3.000000e+00 -2.000000e+01 -3.000000e+01
      endloop
   endfacet
   facet normal 1.000000e+00 0.000000e+00 0.000000e+00
      outer loop
         vertex 3.000000e+00 -2.000000e+01 -3.000000e+01
         vertex 3.000000e+00 -1.539873e+01 -2.170433e+01
         vertex 3.000000e+00 -2.000000e+01 3.000000e+01
      endloop
   endfacet
   facet normal 1.000000e+00 0.000000e+00 0.000000e+00
      outer loop
         vertex 3.000000e+00 -1.539873e+01 -2.170433e+01
         vertex 3.000000e+00 -1.539873e+01 -2.029567e+01
         vertex 3.000000e+00 -2.000000e+01 3.000000e+01
      endloop
   endfacet
   facet normal 1.000000e+00 0.000000e+00 -0.000000e+00
      outer loop
         vertex 3.000000e+00 -2.000000e+01 3.000000e+01
         vertex 3.000000e+00 -1.539873e+01 2.029567e+01
         vertex 3.000000e+00 -1.539873e+01 2.170433e+01
      endloop
   endfacet
   facet normal 1.000000e+00 0.000000e+00 0.000000e+00
      outer loop
         vertex 3.000000e+00 -1.539873e+01 2.029567e+01
         vertex 3.000000e+00 -2.000000e+01 3.000000e+01
         vertex 3.000000e+00 -6.000000e+00 -3.000000e+01
      endloop
   endfacet
   facet normal 1.000000e+00 -0.000000e+00 -0.000000e+00
      outer loop
         vertex 3.000000e+00 -2.000000e+01 3.000000e+01
         vertex 3.000000e+00 -1.089687e+01 -1.964840e+01
         vertex 3.000000e+00 -6.000000e+00 -3.000000e+01
      endloop
   endfacet
   facet normal 1.000000e+00 0.000000e+00 0.000000e+00
      outer loop
         vertex 3.000000e+00 -6.000000e+00 -3.000000e+01
         vertex 3.000000e+00 -1.089687e+01 -1.964840e+01
         vertex 3.000000e+00 -1.050000e+01 -2.100000e+01
      endloop
   endfacet
   facet normal 1.000000e+00 0.000000e+00 0.000000e+00
      outer loop
         vertex 3.000000e+00 -1.539873e+01 -2.170433e+01
         vertex 3.000000e+00 -2.000000e+01 -3.000000e+01
         vertex 3.000000e+00 -1.463715e+01 -2.288937e+01
      endloop
   endfacet
   facet normal 1.000000e+00 0.000000e+00 0.000000e+00
      outer loop
         vertex 3.000000e+00 -2.000000e+01 -3.000000e+01
         vertex 3.000000e+00 -1.335579e+01 -2.347455e+01
         vertex 3.000000e+00 -1.463715e+01 -2.288937e+01
      endloop
   endfacet
   facet normal 1.000000e+00 0.000000e+00 0.000000e+00
      outer loop
         vertex 3.000000e+00 -1.089687e+01 -1.964840e+01
         vertex 3.000000e+00 -2.000000e+01 3.000000e+01
         vertex 3.000000e+00 -1.196146e+01 -1.872592e+01
      endloop
   endfacet
   facet normal 1.000000e+00 -0.000000e+00 -0.000000e+00
      outer loop
         vertex 3.000000e+00 -2.000000e+01 3.000000e+01
         vertex 3.000000e+00 -1.335579e+01 -1.852545e+01
         vertex 3.000000e+00 -1.196146e+01 -1.872592e+01
      endloop
   endfacet
   facet normal 1.000000e+00 0.000000e+00 0.000000e+00
      outer loop
         vertex 3.000000e+00 -1.463715e+01 -1.911063e+01
         vertex 3.000000e+00 -2.000000e+01 3.000000e+01
         vertex 3.000000e+00 -1.539873e+01 -2.029567e+01
      endloop
   endfacet
   facet normal 1.000000e+00 0.000000e+00 0.000000e+00
      outer loop
         vertex 3.000000e+00 -1.335579e+01 -1.852545e+01
         vertex 3.000000e+00 -2.000000e+01 3.000000e+01
         vertex 3.000000e+00 -1.463715e+01 -1.911063e+01
      endloop
   endfacet
   facet normal 1.000000e+00 0.000000e+00 0.000000e+00
      outer loop
         vertex 3.000000e+00 1.403854e+01 -2.327408e+01
         vertex 3.000000e+00 2.000000e+01 -3.000000e+01
         vertex 3.000000e+00 1.510313e+01 -2.235160e+01
      endloop
   endfacet
   facet normal 1.000000e+00 0.000000e+00 0.000000e+00
      outer loop
         vertex 3.000000e+00 -1.089687e+01 -2.235160e+01
         vertex 3.000000e+00 -6.000000e+00 -3.000000e+01
         vertex 3.000000e+00 -1.050000e+01 -2.100000e+01
      endloop
   endfacet
   facet normal 1.000000e+00 0.000000e+00 0.000000e+00
      outer loop
         vertex 3.000000e+00 -1.463715e+01 2.288937e+01
         vertex 3.000000e+00 -2.000000e+01 3.000000e+01
         vertex 3.000000e+00 -1.539873e+01 2.170433e+01
      endloop
   endfacet
   facet normal 1.000000e+00 0.000000e+00 0.000000e+00
      outer loop
         vertex 3.000000e+00 1.510313e+01 -2.235160e+01
         vertex 3.000000e+00 2.000000e+01 -3.000000e+01
         vertex 3.000000e+00 1.550000e+01 -2.100000e+01
      endloop
   endfacet
   facet normal 1.000000e+00 0.000000e+00 0.000000e+00
      outer loop
         vertex 3.000000e+00 1.550000e+01 2.100000e+01
         vertex 3.000000e+00 2.000000e+01 3.000000e+01
         vertex 3.000000e+00 1.510313e+01 2.235160e+01
      endloop
   endfacet
   facet normal 1.000000e+00 0.000000e+00 0.000000e+00
      outer loop
         vertex 3.000000e+00 1.988227e+00 -1.688044e+01
         vertex 3.000000e+00 1.264421e+01 -1.852545e+01
         vertex 3.000000e+00 3.099096e+00 -1.562653e+01
      endloop
   endfacet
   facet normal 1.000000e+00 0.000000e+00 0.000000e+00
      outer loop
         vertex 3.000000e+00 3.500000e+00 1.400000e+01
         vertex 3.000000e+00 1.060127e+01 2.170433e+01
         vertex 3.000000e+00 3.099096e+00 1.562653e+01
      endloop
   endfacet
   facet normal 1.000000e+00 0.000000e+00 0.000000e+00
      outer loop
         vertex 3.000000e+00 -1.196146e+01 -2.327408e+01
         vertex 3.000000e+00 -6.000000e+00 -3.000000e+01
         vertex 3.000000e+00 -1.089687e+01 -2.235160e+01
      endloop
   endfacet
   facet normal 0.000000e+00 -9.594931e-01 -2.817322e-01
      outer loop
         vertex 3.000000e+00 -1.089687e+01 -1.964840e+01
         vertex -3.552714e-15 -1.089687e+01 -1.964840e+01
         vertex -3.552714e-15 -1.050000e+01 -2.100000e+01
      endloop
   endfacet
   facet normal 0.000000e+00 -9.594931e-01 -2.817322e-01
      outer loop
         vertex 3.000000e+00 -1.050000e+01 -2.100000e+01
         vertex 3.000000e+00 -1.089687e+01 -1.964840e+01
         vertex -3.552714e-15 -1.050000e+01 -2.100000e+01
      endloop
   endfacet
   facet normal 0.000000e+00 -6.548607e-01 -7.557496e-01
      outer loop
         vertex 3.000000e+00 -1.196146e+01 -1.872592e+01
         vertex -3.552714e-15 -1.196146e+01 -1.872592e+01
         vertex -3.552714e-15 -1.089687e+01 -1.964840e+01
      endloop
   endfacet
   facet normal 0.000000e+00 -6.548607e-01 -7.557496e-01
      outer loop
         vertex 3.000000e+00 -1.089687e+01 -1.964840e+01
         vertex 3.000000e+00 -1.196146e+01 -1.872592e+01
         vertex -3.552714e-15 -1.089687e+01 -1.964840e+01
      endloop
   endfacet
   facet normal 0.000000e+00 -1.423149e-01 -9.898214e-01
      outer loop
         vertex 3.000000e+00 -1.335579e+01 -1.852545e+01
         vertex -2.664535e-15 -1.335579e+01 -1.852545e+01
         vertex -3.552714e-15 -1.196146e+01 -1.872592e+01
      endloop
   endfacet
   facet normal 0.000000e+00 -1.423149e-01 -9.898214e-01
      outer loop
         vertex 3.000000e+00 -1.196146e+01 -1.872592e+01
         vertex 3.000000e+00 -1.335579e+01 -1.852545e+01
         vertex -3.552714e-15 -1.196146e+01 -1.872592e+01
      endloop
   endfacet
   facet normal 0.000000e+00 4.154155e-01 -9.096318e-01
      outer loop
         vertex 3.000000e+00 -1.463715e+01 -1.911063e+01
         vertex -3.552714e-15 -1.463715e+01 -1.911063e+01
         vertex -2.664535e-15 -1.335579e+01 -1.852545e+01
      endloop
   endfacet
   facet normal 0.000000e+00 4.154155e-01 -9.096318e-01
      outer loop
         vertex 3.000000e+00 -1.335579e+01 -1.852545e+01
         vertex 3.000000e+00 -1.463715e+01 -1.911063e+01
         vertex -2.664535e-15 -1.335579e+01 -1.852545e+01
      endloop
   endfacet
   facet normal 0.000000e+00 8.412537e-01 -5.406405e-01
      outer loop
         vertex 3.000000e+00 -1.539873e+01 -2.029567e+01
         vertex -3.552714e-15 -1.539873e+01 -2.029567e+01
         vertex -3.552714e-15 -1.463715e+01 -1.911063e+01
      endloop
   endfacet
   facet normal 0.000000e+00 8.412537e-01 -5.406405e-01
      outer loop
         vertex 3.000000e+00 -1.463715e+01 -1.911063e+01
         vertex 3.000000e+00 -1.539873e+01 -2.029567e+01
         vertex -3.552714e-15 -1.463715e+01 -1.911063e+01
      endloop
   endfacet
   facet normal 0.000000e+00 1.000000e+00 0.000000e+00
      outer loop
         vertex 3.000000e+00 -1.539873e+01 -2.170433e+01
         vertex -3.552714e-15 -1.539873e+01 -2.170433e+01
         vertex -3.552714e-15 -1.539873e+01 -2.029567e+01
      endloop
   endfacet
   facet normal 0.000000e+00 1.000000e+00 -0.000000e+00
      outer loop
         vertex 3.000000e+00 -1.539873e+01 -2.029567e+01
         vertex 3.000000e+00 -1.539873e+01 -2.170433e+01
         vertex -3.552714e-15 -1.539873e+01 -2.029567e+01
      endloop
   endfacet
   facet normal -0.000000e+00 8.412537e-01 5.406405e-01
      outer loop
         vertex 3.000000e+00 -1.463715e+01 -2.288937e+01
         vertex -3.552714e-15 -1.463715e+01 -2.288937e+01
         vertex -3.552714e-15 -1.539873e+01 -2.170433e+01
      endloop
   endfacet
   facet normal 0.000000e+00 8.412537e-01 5.406405e-01
      outer loop
         vertex 3.000000e+00 -1.539873e+01 -2.170433e+01
         vertex 3.000000e+00 -1.463715e+01 -2.288937e+01
         vertex -3.552714e-15 -1.539873e+01 -2.170433e+01
      endloop
   endfacet
   facet normal -0.000000e+00 4.154155e-01 9.096318e-01
      outer loop
         vertex 3.000000e+00 -1.335579e+01 -2.347455e+01
         vertex -4.440892e-15 -1.335579e+01 -2.347455e+01
         vertex -3.552714e-15 -1.463715e+01 -2.288937e+01
      endloop
   endfacet
   facet normal 0.000000e+00 4.154155e-01 9.096318e-01
      outer loop
         vertex 3.000000e+00 -1.463715e+01 -2.288937e+01
         vertex 3.000000e+00 -1.335579e+01 -2.347455e+01
         vertex -3.552714e-15 -1.463715e+01 -2.288937e+01
      endloop
   endfacet
   facet normal 0.000000e+00 -1.423149e-01 9.898214e-01
      outer loop
         vertex 3.000000e+00 -1.196146e+01 -2.327408e+01
         vertex -3.552714e-15 -1.196146e+01 -2.327408e+01
         vertex -4.440892e-15 -1.335579e+01 -2.347455e+01
      endloop
   endfacet
   facet normal 0.000000e+00 -1.423149e-01 9.898214e-01
      outer loop
         vertex 3.000000e+00 -1.335579e+01 -2.347455e+01
         vertex 3.000000e+00 -1.196146e+01 -2.327408e+01
         vertex -4.440892e-15 -1.335579e+01 -2.347455e+01
      endloop
   endfacet
   facet normal 0.000000e+00 -6.548607e-01 7.557496e-01
      outer loop
         vertex 3.000000e+00 -1.089687e+01 -2.235160e+01
         vertex -3.552714e-15 -1.089687e+01 -2.235160e+01
         vertex -3.552714e-15 -1.196146e+01 -2.327408e+01
      endloop
   endfacet
   facet normal 0.000000e+00 -6.548607e-01 7.557496e-01
      outer loop
         vertex 3.000000e+00 -1.196146e+01 -2.327408e+01
         vertex 3.000000e+00 -1.089687e+01 -2.235160e+01
         vertex -3.552714e-15 -1.196146e+01 -2.327408e+01
      endloop
   endfacet
   facet normal 0.000000e+00 -9.594931e-01 2.817322e-01
      outer loop
         vertex 3.000000e+00 -1.050000e+01 -2.100000e+01
         vertex -3.552714e-15 -1.050000e+01 -2.100000e+01
         vertex -3.552714e-15 -1.089687e+01 -2.235160e+01
      endloop
   endfacet
   facet normal 0.000000e+00 -9.594931e-01 2.817322e-01
      outer loop
         vertex 3.000000e+00 -1.089687e+01 -2.235160e+01
         vertex 3.000000e+00 -1.050000e+01 -2.100000e+01
         vertex -3.552714e-15 -1.089687e+01 -2.235160e+01
      endloop
   endfacet
   facet normal 0.000000e+00 -9.594931e-01 -2.817322e-01
      outer loop
         vertex 3.000000e+00 -1.089687e+01 2.235160e+01
         vertex 3.552714e-15 -1.089687e+01 2.235160e+01
         vertex 3.552714e-15 -1.050000e+01 2.100000e+01
      endloop
   endfacet
   facet normal 0.000000e+00 -9.594931e-01 -2.817322e-01
      outer loop
         vertex 3.000000e+00 -1.050000e+01 2.100000e+01
         vertex 3.000000e+00 -1.089687e+01 2.235160e+01
         vertex 3.552714e-15 -1.050000e+01 2.100000e+01
      endloop
   endfacet
   facet normal 0.000000e+00 -6.548607e-01 -7.557496e-01
      outer loop
         vertex 3.000000e+00 -1.196146e+01 2.327408e+01
         vertex 3.552714e-15 -1.196146e+01 2.327408e+01
         vertex 3.552714e-15 -1.089687e+01 2.235160e+01
      endloop
   endfacet
   facet normal 0.000000e+00 -6.548607e-01 -7.557496e-01
      outer loop
         vertex 3.000000e+00 -1.089687e+01 2.235160e+01
         vertex 3.000000e+00 -1.196146e+01 2.327408e+01
         vertex 3.552714e-15 -1.089687e+01 2.235160e+01
      endloop
   endfacet
   facet normal 0.000000e+00 -1.423149e-01 -9.898214e-01
      outer loop
         vertex 3.000000e+00 -1.335579e+01 2.347455e+01
         vertex 4.440892e-15 -1.335579e+01 2.347455e+01
         vertex 3.552714e-15 -1.196146e+01 2.327408e+01
      endloop
   endfacet
   facet normal 0.000000e+00 -1.423149e-01 -9.898214e-01
      outer loop
         vertex 3.000000e+00 -1.196146e+01 2.327408e+01
         vertex 3.000000e+00 -1.335579e+01 2.347455e+01
         vertex 3.552714e-15 -1.196146e+01 2.327408e+01
      endloop
   endfacet
   facet normal 0.000000e+00 4.154155e-01 -9.096318e-01
      outer loop
         vertex 3.000000e+00 -1.463715e+01 2.288937e+01
         vertex 3.552714e-15 -1.463715e+01 2.288937e+01
         vertex 4.440892e-15 -1.335579e+01 2.347455e+01
      endloop
   endfacet
   facet normal 0.000000e+00 4.154155e-01 -9.096318e-01
      outer loop
         vertex 3.000000e+00 -1.335579e+01 2.347455e+01
         vertex 3.000000e+00 -1.463715e+01 2.288937e+01
         vertex 4.440892e-15 -1.335579e+01 2.347455e+01
      endloop
   endfacet
   facet normal 0.000000e+00 8.412537e-01 -5.406405e-01
      outer loop
         vertex 3.000000e+00 -1.539873e+01 2.170433e+01
         vertex 3.552714e-15 -1.539873e+01 2.170433e+01
         vertex 3.552714e-15 -1.463715e+01 2.288937e+01
      endloop
   endfacet
   facet normal 0.000000e+00 8.412537e-01 -5.406405e-01
      outer loop
         vertex 3.000000e+00 -1.463715e+01 2.288937e+01
         vertex 3.000000e+00 -1.539873e+01 2.170433e+01
         vertex 3.552714e-15 -1.463715e+01 2.288937e+01
      endloop
   endfacet
   facet normal 0.000000e+00 1.000000e+00 0.000000e+00
      outer loop
         vertex 3.000000e+00 -1.539873e+01 2.029567e+01
         vertex 3.552714e-15 -1.539873e+01 2.029567e+01
         vertex 3.552714e-15 -1.539873e+01 2.170433e+01
      endloop
   endfacet
   facet normal 0.000000e+00 1.000000e+00 -0.000000e+00
      outer loop
         vertex 3.000000e+00 -1.539873e+01 2.170433e+01
         vertex 3.000000e+00 -1.539873e+01 2.029567e+01
         vertex 3.552714e-15 -1.539873e+01 2.170433e+01
      endloop
   endfacet
   facet normal -0.000000e+00 8.412537e-01 5.406405e-01
      outer loop
         vertex 3.000000e+00 -1.463715e+01 1.911063e+01
         vertex 3.552714e-15 -1.463715e+01 1.911063e+01
         vertex 3.552714e-15 -1.539873e+01 2.029567e+01
      endloop
   endfacet
   facet normal 0.000000e+00 8.412537e-01 5.406405e-01
      outer loop
         vertex 3.000000e+00 -1.539873e+01 2.029567e+01
         vertex 3.000000e+00 -1.463715e+01 1.911063e+01
         vertex 3.552714e-15 -1.539873e+01 2.029567e+01
      endloop
   endfacet
   facet normal -0.000000e+00 4.154155e-01 9.096318e-01
      outer loop
         vertex 3.000000e+00 -1.335579e+01 1.852545e+01
         vertex 2.664535e-15 -1.335579e+01 1.852545e+01
         vertex 3.552714e-15 -1.463715e+01 1.911063e+01
      endloop
   endfacet
   facet normal 0.000000e+00 4.154155e-01 9.096318e-01
      outer loop
         vertex 3.000000e+00 -1.463715e+01 1.911063e+01
         vertex 3.000000e+00 -1.335579e+01 1.852545e+01
         vertex 3.552714e-15 -1.463715e+01 1.911063e+01
      endloop
   endfacet
   facet normal 0.000000e+00 -1.423149e-01 9.898214e-01
      outer loop
         vertex 3.000000e+00 -1.196146e+01 1.872592e+01
         vertex 3.552714e-15 -1.196146e+01 1.872592e+01
         vertex 2.664535e-15 -1.335579e+01 1.852545e+01
      endloop
   endfacet
   facet normal 0.000000e+00 -1.423149e-01 9.898214e-01
      outer loop
         vertex 3.000000e+00 -1.335579e+01 1.852545e+01
         vertex 3.000000e+00 -1.196146e+01 1.872592e+01
         vertex 2.664535e-15 -1.335579e+01 1.852545e+01
      endloop
   endfacet
   facet normal 0.000000e+00 -6.548607e-01 7.557496e-01
      outer loop
         vertex 3.000000e+00 -1.089687e+01 1.964840e+01
         vertex 3.552714e-15 -1.089687e+01 1.964840e+01
         vertex 3.552714e-15 -1.196146e+01 1.872592e+01
      endloop
   endfacet
   facet normal 0.000000e+00 -6.548607e-01 7.557496e-01
      outer loop
         vertex 3.000000e+00 -1.196146e+01 1.872592e+01
         vertex 3.000000e+00 -1.089687e+01 1.964840e+01
         vertex 3.552714e-15 -1.196146e+01 1.872592e+01
      endloop
   endfacet
   facet normal 0.000000e+00 -9.594931e-01 2.817322e-01
      outer loop
         vertex 3.000000e+00 -1.050000e+01 2.100000e+01
         vertex 3.552714e-15 -1.050000e+01 2.100000e+01
         vertex 3.552714e-15 -1.089687e+01 1.964840e+01
      endloop
   endfacet
   facet normal 0.000000e+00 -9.594931e-01 2.817322e-01
      outer loop
         vertex 3.000000e+00 -1.089687e+01 1.964840e+01
         vertex 3.000000e+00 -1.050000e+01 2.100000e+01
         vertex 3.552714e-15 -1.089687e+01 1.964840e+01
      endloop
   endfacet
   facet normal 0.000000e+00 -9.594931e-01 -2.817322e-01
      outer loop
         vertex 3.000000e+00 1.510313e+01 -1.964840e+01
         vertex -3.552714e-15 1.510313e+01 -1.964840e+01
         vertex -3.552714e-15 1.550000e+01 -2.100000e+01
      endloop
   endfacet
   facet normal 0.000000e+00 -9.594931e-01 -2.817322e-01
      outer loop
         vertex 3.000000e+00 1.550000e+01 -2.100000e+01
         vertex 3.000000e+00 1.510313e+01 -1.964840e+01
         vertex -3.552714e-15 1.550000e+01 -2.100000e+01
      endloop
   endfacet
   facet normal 0.000000e+00 -6.548607e-01 -7.557496e-01
      outer loop
         vertex 3.000000e+00 1.403854e+01 -1.872592e+01
         vertex -3.552714e-15 1.403854e+01 -1.872592e+01
         vertex -3.552714e-15 1.510313e+01 -1.964840e+01
      endloop
   endfacet
   facet normal 0.000000e+00 -6.548607e-01 -7.557496e-01
      outer loop
         vertex 3.000000e+00 1.510313e+01 -1.964840e+01
         vertex 3.000000e+00 1.403854e+01 -1.872592e+01
         vertex -3.552714e-15 1.510313e+01 -1.964840e+01
      endloop
   endfacet
   facet normal 0.000000e+00 -1.423149e-01 -9.898214e-01
      outer loop
         vertex 3.000000e+00 1.264421e+01 -1.852545e+01
         vertex -2.664535e-15 1.264421e+01 -1.852545e+01
         vertex -3.552714e-15 1.403854e+01 -1.872592e+01
      endloop
   endfacet
   facet normal 0.000000e+00 -1.423149e-01 -9.898214e-01
      outer loop
         vertex 3.000000e+00 1.403854e+01 -1.872592e+01
         vertex 3.000000e+00 1.264421e+01 -1.852545e+01
         vertex -3.552714e-15 1.403854e+01 -1.872592e+01
      endloop
   endfacet
   facet normal 0.000000e+00 4.154155e-01 -9.096318e-01
      outer loop
         vertex 3.000000e+00 1.136285e+01 -1.911063e+01
         vertex -3.552714e-15 1.136285e+01 -1.911063e+01
         vertex -2.664535e-15 1.264421e+01 -1.852545e+01
      endloop
   endfacet
   facet normal 0.000000e+00 4.154155e-01 -9.096318e-01
      outer loop
         vertex 3.000000e+00 1.264421e+01 -1.852545e+01
         vertex 3.000000e+00 1.136285e+01 -1.911063e+01
         vertex -2.664535e-15 1.264421e+01 -1.852545e+01
      endloop
   endfacet
   facet normal 0.000000e+00 8.412537e-01 -5.406405e-01
      outer loop
         vertex 3.000000e+00 1.060127e+01 -2.029567e+01
         vertex -3.552714e-15 1.060127e+01 -2.029567e+01
         vertex -3.552714e-15 1.136285e+01 -1.911063e+01
      endloop
   endfacet
   facet normal 0.000000e+00 8.412537e-01 -5.406405e-01
      outer loop
         vertex 3.000000e+00 1.136285e+01 -1.911063e+01
         vertex 3.000000e+00 1.060127e+01 -2.029567e+01
         vertex -3.552714e-15 1.136285e+01 -1.911063e+01
      endloop
   endfacet
   facet normal 0.000000e+00 1.000000e+00 0.000000e+00
      outer loop
         vertex 3.000000e+00 1.060127e+01 -2.170433e+01
         vertex -3.552714e-15 1.060127e+01 -2.170433e+01
         vertex -3.552714e-15 1.060127e+01 -2.029567e+01
      endloop
   endfacet
   facet normal 0.000000e+00 1.000000e+00 -0.000000e+00
      outer loop
         vertex 3.000000e+00 1.060127e+01 -2.029567e+01
         vertex 3.000000e+00 1.060127e+01 -2.170433e+01
         vertex -3.552714e-15 1.060127e+01 -2.029567e+01
      endloop
   endfacet
   facet normal -0.000000e+00 8.412537e-01 5.406405e-01
      outer loop
         vertex 3.000000e+00 1.136285e+01 -2.288937e+01
         vertex -3.552714e-15 1.136285e+01 -2.288937e+01
         vertex -3.552714e-15 1.060127e+01 -2.170433e+01
      endloop
   endfacet
   facet normal 0.000000e+00 8.412537e-01 5.406405e-01
      outer loop
         vertex 3.000000e+00 1.060127e+01 -2.170433e+01
         vertex 3.000000e+00 1.136285e+01 -2.288937e+01
         vertex -3.552714e-15 1.060127e+01 -2.170433e+01
      endloop
   endfacet
   facet normal -0.000000e+00 4.154155e-01 9.096318e-01
      outer loop
         vertex 3.000000e+00 1.264421e+01 -2.347455e+01
         vertex -4.440892e-15 1.264421e+01 -2.347455e+01
         vertex -3.552714e-15 1.136285e+01 -2.288937e+01
      endloop
   endfacet
   facet normal 0.000000e+00 4.154155e-01 9.096318e-01
      outer loop
         vertex 3.000000e+00 1.136285e+01 -2.288937e+01
         vertex 3.000000e+00 1.264421e+01 -2.347455e+01
         vertex -3.552714e-15 1.136285e+01 -2.288937e+01
      endloop
   endfacet
   facet normal 0.000000e+00 -1.423149e-01 9.898214e-01
      outer loop
         vertex 3.000000e+00 1.403854e+01 -2.327408e+01
         vertex -3.552714e-15 1.403854e+01 -2.327408e+01
         vertex -4.440892e-15 1.264421e+01 -2.347455e+01
      endloop
   endfacet
   facet normal 0.000000e+00 -1.423149e-01 9.898214e-01
      outer loop
         vertex 3.000000e+00 1.264421e+01 -2.347455e+01
         vertex 3.000000e+00 1.403854e+01 -2.327408e+01
         vertex -4.440892e-15 1.264421e+01 -2.347455e+01
      endloop
   endfacet
   facet normal 0.000000e+00 -6.548607e-01 7.557496e-01
      outer loop
         vertex 3.000000e+00 1.510313e+01 -2.235160e+01
         vertex -3.552714e-15 1.510313e+01 -2.235160e+01
         vertex -3.552714e-15 1.403854e+01 -2.327408e+01
      endloop
   endfacet
   facet normal 0.000000e+00 -6.548607e-01 7.557496e-01
      outer loop
         vertex 3.000000e+00 1.403854e+01 -2.327408e+01
         vertex 3.000000e+00 1.510313e+01 -2.235160e+01
         vertex -3.552714e-15 1.403854e+01 -2.327408e+01
      endloop
   endfacet
   facet normal 0.000000e+00 -9.594931e-01 2.817322e-01
      outer loop
         vertex 3.000000e+00 1.550000e+01 -2.100000e+01
         vertex -3.552714e-15 1.550000e+01 -2.100000e+01
         vertex -3.552714e-15 1.510313e+01 -2.235160e+01
      endloop
   endfacet
   facet normal 0.000000e+00 -9.594931e-01 2.817322e-01
      outer loop
         vertex 3.000000e+00 1.510313e+01 -2.235160e+01
         vertex 3.000000e+00 1.550000e+01 -2.100000e+01
         vertex -3.552714e-15 1.510313e+01 -2.235160e+01
      endloop
   endfacet
   facet normal 0.000000e+00 -9.594931e-01 -2.817322e-01
      outer loop
         vertex 3.000000e+00 1.510313e+01 2.235160e+01
         vertex 3.552714e-15 1.510313e+01 2.235160e+01
         vertex 3.552714e-15 1.550000e+01 2.100000e+01
      endloop
   endfacet
   facet normal 0.000000e+00 -9.594931e-01 -2.817322e-01
      outer loop
         vertex 3.000000e+00 1.550000e+01 2.100000e+01
         vertex 3.000000e+00 1.510313e+01 2.235160e+01
         vertex 3.552714e-15 1.550000e+01 2.100000e+01
      endloop
   endfacet
   facet normal 0.000000e+00 -6.548607e-01 -7.557496e-01
      outer loop
         vertex 3.000000e+00 1.403854e+01 2.327408e+01
         vertex 3.552714e-15 1.403854e+01 2.327408e+01
         vertex 3.552714e-15 1.510313e+01 2.235160e+01
      endloop
   endfacet
   facet normal 0.000000e+00 -6.548607e-01 -7.557496e-01
      outer loop
         vertex 3.000000e+00 1.510313e+01 2.235160e+01
         vertex 3.000000e+00 1.403854e+01 2.327408e+01
         vertex 3.552714e-15 1.510313e+01 2.235160e+01
      endloop
   endfacet
   facet normal 0.000000e+00 -1.423149e-01 -9.898214e-01
      outer loop
         vertex 3.000000e+00 1.264421e+01 2.347455e+01
         vertex 4.440892e-15 1.264421e+01 2.347455e+01
         vertex 3.552714e-15 1.403854e+01 2.327408e+01
      endloop
   endfacet
   facet normal 0.000000e+00 -1.423149e-01 -9.898214e-01
      outer loop
         vertex 3.000000e+00 1.403854e+01 2.327408e+01
         vertex 3.000000e+00 1.264421e+01 2.347455e+01
         vertex 3.552714e-15 1.403854e+01 2.327408e+01
      endloop
   endfacet
   facet normal 0.000000e+00 4.154155e-01 -9.096318e-01
      outer loop
         vertex 3.000000e+00 1.136285e+01 2.288937e+01
         vertex 3.552714e-15 1.136285e+01 2.288937e+01
         vertex 4.440892e-15 1.264421e+01 2.347455e+01
      endloop
   endfacet
   facet normal 0.000000e+00 4.154155e-01 -9.096318e-01
      outer loop
         vertex 3.000000e+00 1.264421e+01 2.347455e+01
         vertex 3.000000e+00 1.136285e+01 2.288937e+01
         vertex 4.440892e-15 1.264421e+01 2.347455e+01
      endloop
   endfacet
   facet normal 0.000000e+00 8.412537e-01 -5.406405e-01
      outer loop
         vertex 3.000000e+00 1.060127e+01 2.170433e+01
         vertex 3.552714e-15 1.060127e+01 2.170433e+01
         vertex 3.552714e-15 1.136285e+01 2.288937e+01
      endloop
   endfacet
   facet normal 0.000000e+00 8.412537e-01 -5.406405e-01
      outer loop
         vertex 3.000000e+00 1.136285e+01 2.288937e+01
         vertex 3.000000e+00 1.060127e+01 2.170433e+01
         vertex 3.552714e-15 1.136285e+01 2.288937e+01
      endloop
   endfacet
   facet normal 0.000000e+00 1.000000e+00 0.000000e+00
      outer loop
         vertex 3.000000e+00 1.060127e+01 2.029567e+01
         vertex 3.552714e-15 1.060127e+01 2.029567e+01
         vertex 3.552714e-15 1.060127e+01 2.170433e+01
      endloop
   endfacet
   facet normal 0.000000e+00 1.000000e+00 -0.000000e+00
      outer loop
         vertex 3.000000e+00 1.060127e+01 2.170433e+01
         vertex 3.000000e+00 1.060127e+01 2.029567e+01
         vertex 3.552714e-15 1.060127e+01 2.170433e+01
      endloop
   endfacet
   facet normal -0.000000e+00 8.412537e-01 5.406405e-01
      outer loop
         vertex 3.000000e+00 1.136285e+01 1.911063e+01
         vertex 3.552714e-15 1.136285e+01 1.911063e+01
         vertex 3.552714e-15 1.060127e+01 2.029567e+01
      endloop
   endfacet
   facet normal 0.000000e+00 8.412537e-01 5.406405e-01
      outer loop
         vertex 3.000000e+00 1.060127e+01 2.029567e+01
         vertex 3.000000e+00 1.136285e+01 1.911063e+01
         vertex 3.552714e-15 1.060127e+01 2.029567e+01
      endloop
   endfacet
   facet normal -0.000000e+00 4.154155e-01 9.096318e-01
      outer loop
         vertex 3.000000e+00 1.264421e+01 1.852545e+01
         vertex 2.664535e-15 1.264421e+01 1.852545e+01
         vertex 3.552714e-15 1.136285e+01 1.911063e+01
      endloop
   endfacet
   facet normal 0.000000e+00 4.154155e-01 9.096318e-01
      outer loop
         vertex 3.000000e+00 1.136285e+01 1.911063e+01
         vertex 3.000000e+00 1.264421e+01 1.852545e+01
         vertex 3.552714e-15 1.136285e+01 1.911063e+01
      endloop
   endfacet
   facet normal 0.000000e+00 -1.423149e-01 9.898214e-01
      outer loop
         vertex 3.000000e+00 1.403854e+01 1.872592e+01
         vertex 3.552714e-15 1.403854e+01 1.872592e+01
         vertex 2.664535e-15 1.264421e+01 1.852545e+01
      endloop
   endfacet
   facet normal 0.000000e+00 -1.423149e-01 9.898214e-01
      outer loop
         vertex 3.000000e+00 1.264421e+01 1.852545e+01
         vertex 3.000000e+00 1.403854e+01 1.872592e+01
         vertex 2.664535e-15 1.264421e+01 1.852545e+01
      endloop
   endfacet
   facet normal 0.000000e+00 -6.548607e-01 7.557496e-01
      outer loop
         vertex 3.000000e+00 1.510313e+01 1.964840e+01
         vertex 3.552714e-15 1.510313e+01 1.964840e+01
         vertex 3.552714e-15 1.403854e+01 1.872592e+01
      endloop
   endfacet
   facet normal 0.000000e+00 -6.548607e-01 7.557496e-01
      outer loop
         vertex 3.000000e+00 1.403854e+01 1.872592e+01
         vertex 3.000000e+00 1.510313e+01 1.964840e+01
         vertex 3.552714e-15 1.403854e+01 1.872592e+01
      endloop
   endfacet
   facet normal 0.000000e+00 -9.594931e-01 2.817322e-01
      outer loop
         vertex 3.000000e+00 1.550000e+01 2.100000e+01
         vertex 3.552714e-15 1.550000e+01 2.100000e+01
         vertex 3.552714e-15 1.510313e+01 1.964840e+01
      endloop
   endfacet
   facet normal 0.000000e+00 -9.594931e-01 2.817322e-01
      outer loop
         vertex 3.000000e+00 1.510313e+01 1.964840e+01
         vertex 3.000000e+00 1.550000e+01 2.100000e+01
         vertex 3.552714e-15 1.510313e+01 1.964840e+01
      endloop
   endfacet
   facet normal 0.000000e+00 -9.709418e-01 -2.393157e-01
      outer loop
         vertex 3.000000e+00 3.099096e+00 -1.237347e+01
         vertex -2.664535e-15 3.099096e+00 -1.237347e+01
         vertex -2.664535e-15 3.500000e+00 -1.400000e+01
      endloop
   endfacet
   facet normal 0.000000e+00 -9.709418e-01 -2.393157e-01
      outer loop
         vertex 3.000000e+00 3.500000e+00 -1.400000e+01
         vertex 3.000000e+00 3.099096e+00 -1.237347e+01
         vertex -2.664535e-15 3.500000e+00 -1.400000e+01
      endloop
   endfacet
   facet normal 0.000000e+00 -7.485109e-01 -6.631225e-01
      outer loop
         vertex 3.000000e+00 1.988227e+00 -1.111956e+01
         vertex -1.776357e-15 1.988227e+00 -1.111956e+01
         vertex -2.664535e-15 3.099096e+00 -1.237347e+01
      endloop
   endfacet
   facet normal 0.000000e+00 -7.485109e-01 -6.631225e-01
      outer loop
         vertex 3.000000e+00 3.099096e+00 -1.237347e+01
         vertex 3.000000e+00 1.988227e+00 -1.111956e+01
         vertex -2.664535e-15 3.099096e+00 -1.237347e+01
      endloop
   endfacet
   facet normal 0.000000e+00 -3.546046e-01 -9.350163e-01
      outer loop
         vertex 3.000000e+00 4.218784e-01 -1.052552e+01
         vertex -1.776357e-15 4.218784e-01 -1.052552e+01
         vertex -1.776357e-15 1.988227e+00 -1.111956e+01
      endloop
   endfacet
   facet normal 0.000000e+00 -3.546046e-01 -9.350163e-01
      outer loop
         vertex 3.000000e+00 1.988227e+00 -1.111956e+01
         vertex 3.000000e+00 4.218784e-01 -1.052552e+01
         vertex -1.776357e-15 1.988227e+00 -1.111956e+01
      endloop
   endfacet
   facet normal 0.000000e+00 1.205362e-01 -9.927089e-01
      outer loop
         vertex 3.000000e+00 -1.241117e+00 -1.072744e+01
         vertex -1.776357e-15 -1.241117e+00 -1.072744e+01
         vertex -1.776357e-15 4.218784e-01 -1.052552e+01
      endloop
   endfacet
   facet normal 0.000000e+00 1.205362e-01 -9.927089e-01
      outer loop
         vertex 3.000000e+00 4.218784e-01 -1.052552e+01
         vertex 3.000000e+00 -1.241117e+00 -1.072744e+01
         vertex -1.776357e-15 4.218784e-01 -1.052552e+01
      endloop
   endfacet
   facet normal 0.000000e+00 5.680648e-01 -8.229838e-01
      outer loop
         vertex 3.000000e+00 -2.619788e+00 -1.167907e+01
         vertex -2.664535e-15 -2.619788e+00 -1.167907e+01
         vertex -1.776357e-15 -1.241117e+00 -1.072744e+01
      endloop
   endfacet
   facet normal 0.000000e+00 5.680648e-01 -8.229838e-01
      outer loop
         vertex 3.000000e+00 -1.241117e+00 -1.072744e+01
         vertex 3.000000e+00 -2.619788e+00 -1.167907e+01
         vertex -1.776357e-15 -1.241117e+00 -1.072744e+01
      endloop
   endfacet
   facet normal 0.000000e+00 8.854561e-01 -4.647230e-01
      outer loop
         vertex 3.000000e+00 -3.398296e+00 -1.316240e+01
         vertex -2.664535e-15 -3.398296e+00 -1.316240e+01
         vertex -2.664535e-15 -2.619788e+00 -1.167907e+01
      endloop
   endfacet
   facet normal 0.000000e+00 8.854561e-01 -4.647230e-01
      outer loop
         vertex 3.000000e+00 -2.619788e+00 -1.167907e+01
         vertex 3.000000e+00 -3.398296e+00 -1.316240e+01
         vertex -2.664535e-15 -2.619788e+00 -1.167907e+01
      endloop
   endfacet
   facet normal 0.000000e+00 1.000000e+00 0.000000e+00
      outer loop
         vertex 3.000000e+00 -3.398296e+00 -1.483760e+01
         vertex -2.664535e-15 -3.398296e+00 -1.483760e+01
         vertex -2.664535e-15 -3.398296e+00 -1.316240e+01
      endloop
   endfacet
   facet normal 0.000000e+00 1.000000e+00 -0.000000e+00
      outer loop
         vertex 3.000000e+00 -3.398296e+00 -1.316240e+01
         vertex 3.000000e+00 -3.398296e+00 -1.483760e+01
         vertex -2.664535e-15 -3.398296e+00 -1.316240e+01
      endloop
   endfacet
   facet normal -0.000000e+00 8.854560e-01 4.647232e-01
      outer loop
         vertex 3.000000e+00 -2.619788e+00 -1.632093e+01
         vertex -2.664535e-15 -2.619788e+00 -1.632093e+01
         vertex -2.664535e-15 -3.398296e+00 -1.483760e+01
      endloop
   endfacet
   facet normal 0.000000e+00 8.854560e-01 4.647232e-01
      outer loop
         vertex 3.000000e+00 -3.398296e+00 -1.483760e+01
         vertex 3.000000e+00 -2.619788e+00 -1.632093e+01
         vertex -2.664535e-15 -3.398296e+00 -1.483760e+01
      endloop
   endfacet
   facet normal -0.000000e+00 5.680648e-01 8.229838e-01
      outer loop
         vertex 3.000000e+00 -1.241117e+00 -1.727256e+01
         vertex -3.552714e-15 -1.241117e+00 -1.727256e+01
         vertex -2.664535e-15 -2.619788e+00 -1.632093e+01
      endloop
   endfacet
   facet normal 0.000000e+00 5.680648e-01 8.229838e-01
      outer loop
         vertex 3.000000e+00 -2.619788e+00 -1.632093e+01
         vertex 3.000000e+00 -1.241117e+00 -1.727256e+01
         vertex -2.664535e-15 -2.619788e+00 -1.632093e+01
      endloop
   endfacet
   facet normal -0.000000e+00 1.205373e-01 9.927088e-01
      outer loop
         vertex 3.000000e+00 4.218784e-01 -1.747448e+01
         vertex -3.552714e-15 4.218784e-01 -1.747448e+01
         vertex -3.552714e-15 -1.241117e+00 -1.727256e+01
      endloop
   endfacet
   facet normal 0.000000e+00 1.205373e-01 9.927088e-01
      outer loop
         vertex 3.000000e+00 -1.241117e+00 -1.727256e+01
         vertex 3.000000e+00 4.218784e-01 -1.747448e+01
         vertex -3.552714e-15 -1.241117e+00 -1.727256e+01
      endloop
   endfacet
   facet normal 0.000000e+00 -3.546051e-01 9.350162e-01
      outer loop
         vertex 3.000000e+00 1.988227e+00 -1.688044e+01
         vertex -3.552714e-15 1.988227e+00 -1.688044e+01
         vertex -3.552714e-15 4.218784e-01 -1.747448e+01
      endloop
   endfacet
   facet normal 0.000000e+00 -3.546051e-01 9.350162e-01
      outer loop
         vertex 3.000000e+00 4.218784e-01 -1.747448e+01
         vertex 3.000000e+00 1.988227e+00 -1.688044e+01
         vertex -3.552714e-15 4.218784e-01 -1.747448e+01
      endloop
   endfacet
   facet normal 0.000000e+00 -7.485109e-01 6.631225e-01
      outer loop
         vertex 3.000000e+00 3.099096e+00 -1.562653e+01
         vertex -2.664535e-15 3.099096e+00 -1.562653e+01
         vertex -3.552714e-15 1.988227e+00 -1.688044e+01
      endloop
   endfacet
   facet normal 0.000000e+00 -7.485109e-01 6.631225e-01
      outer loop
         vertex 3.000000e+00 1.988227e+00 -1.688044e+01
         vertex 3.000000e+00 3.099096e+00 -1.562653e+01
         vertex -3.552714e-15 1.988227e+00 -1.688044e+01
      endloop
   endfacet
   facet normal 0.000000e+00 -9.709418e-01 2.393157e-01
      outer loop
         vertex 3.000000e+00 3.500000e+00 -1.400000e+01
         vertex -2.664535e-15 3.500000e+00 -1.400000e+01
         vertex -2.664535e-15 3.099096e+00 -1.562653e+01
      endloop
   endfacet
   facet normal 0.000000e+00 -9.709418e-01 2.393157e-01
      outer loop
         vertex 3.000000e+00 3.099096e+00 -1.562653e+01
         vertex 3.000000e+00 3.500000e+00 -1.400000e+01
         vertex -2.664535e-15 3.099096e+00 -1.562653e+01
      endloop
   endfacet
   facet normal 0.000000e+00 -9.709418e-01 -2.393157e-01
      outer loop
         vertex 3.000000e+00 3.099096e+00 1.562653e+01
         vertex 2.664535e-15 3.099096e+00 1.562653e+01
         vertex 2.664535e-15 3.500000e+00 1.400000e+01
      endloop
   endfacet
   facet normal 0.000000e+00 -9.709418e-01 -2.393157e-01
      outer loop
         vertex 3.000000e+00 3.500000e+00 1.400000e+01
         vertex 3.000000e+00 3.099096e+00 1.562653e+01
         vertex 2.664535e-15 3.500000e+00 1.400000e+01
      endloop
   endfacet
   facet normal 0.000000e+00 -7.485109e-01 -6.631225e-01
      outer loop
         vertex 3.000000e+00 1.988227e+00 1.688044e+01
         vertex 3.552714e-15 1.988227e+00 1.688044e+01
         vertex 2.664535e-15 3.099096e+00 1.562653e+01
      endloop
   endfacet
   facet normal 0.000000e+00 -7.485109e-01 -6.631225e-01
      outer loop
         vertex 3.000000e+00 3.099096e+00 1.562653e+01
         vertex 3.000000e+00 1.988227e+00 1.688044e+01
         vertex 2.664535e-15 3.099096e+00 1.562653e+01
      endloop
   endfacet
   facet normal 0.000000e+00 -3.546051e-01 -9.350162e-01
      outer loop
         vertex 3.000000e+00 4.218784e-01 1.747448e+01
         vertex 3.552714e-15 4.218784e-01 1.747448e+01
         vertex 3.552714e-15 1.988227e+00 1.688044e+01
      endloop
   endfacet
   facet normal 0.000000e+00 -3.546051e-01 -9.350162e-01
      outer loop
         vertex 3.000000e+00 1.988227e+00 1.688044e+01
         vertex 3.000000e+00 4.218784e-01 1.747448e+01
         vertex 3.552714e-15 1.988227e+00 1.688044e+01
      endloop
   endfacet
   facet normal 0.000000e+00 1.205373e-01 -9.927088e-01
      outer loop
         vertex 3.000000e+00 -1.241117e+00 1.727256e+01
         vertex 3.552714e-15 -1.241117e+00 1.727256e+01
         vertex 3.552714e-15 4.218784e-01 1.747448e+01
      endloop
   endfacet
   facet normal 0.000000e+00 1.205373e-01 -9.927088e-01
      outer loop
         vertex 3.000000e+00 4.218784e-01 1.747448e+01
         vertex 3.000000e+00 -1.241117e+00 1.727256e+01
         vertex 3.552714e-15 4.218784e-01 1.747448e+01
      endloop
   endfacet
   facet normal 0.000000e+00 5.680648e-01 -8.229838e-01
      outer loop
         vertex 3.000000e+00 -2.619788e+00 1.632093e+01
         vertex 2.664535e-15 -2.619788e+00 1.632093e+01
         vertex 3.552714e-15 -1.241117e+00 1.727256e+01
      endloop
   endfacet
   facet normal 0.000000e+00 5.680648e-01 -8.229838e-01
      outer loop
         vertex 3.000000e+00 -1.241117e+00 1.727256e+01
         vertex 3.000000e+00 -2.619788e+00 1.632093e+01
         vertex 3.552714e-15 -1.241117e+00 1.727256e+01
      endloop
   endfacet
   facet normal 0.000000e+00 8.854560e-01 -4.647232e-01
      outer loop
         vertex 3.000000e+00 -3.398296e+00 1.483760e+01
         vertex 2.664535e-15 -3.398296e+00 1.483760e+01
         vertex 2.664535e-15 -2.619788e+00 1.632093e+01
      endloop
   endfacet
   facet normal 0.000000e+00 8.854560e-01 -4.647232e-01
      outer loop
         vertex 3.000000e+00 -2.619788e+00 1.632093e+01
         vertex 3.000000e+00 -3.398296e+00 1.483760e+01
         vertex 2.664535e-15 -2.619788e+00 1.632093e+01
      endloop
   endfacet
   facet normal 0.000000e+00 1.000000e+00 0.000000e+00
      outer loop
         vertex 3.000000e+00 -3.398296e+00 1.316240e+01
         vertex 2.664535e-15 -3.398296e+00 1.316240e+01
         vertex 2.664535e-15 -3.398296e+00 1.483760e+01
      endloop
   endfacet
   facet normal 0.000000e+00 1.000000e+00 -0.000000e+00
      outer loop
         vertex 3.000000e+00 -3.398296e+00 1.483760e+01
         vertex 3.000000e+00 -3.398296e+00 1.316240e+01
         vertex 2.664535e-15 -3.398296e+00 1.483760e+01
      endloop
   endfacet
   facet normal -0.000000e+00 8.854561e-01 4.647230e-01
      outer loop
         vertex 3.000000e+00 -2.619788e+00 1.167907e+01
         vertex 2.664535e-15 -2.619788e+00 1.167907e+01
         vertex 2.664535e-15 -3.398296e+00 1.316240e+01
      endloop
   endfacet
   facet normal 0.000000e+00 8.854561e-01 4.647230e-01
      outer loop
         vertex 3.000000e+00 -3.398296e+00 1.316240e+01
         vertex 3.000000e+00 -2.619788e+00 1.167907e+01
         vertex 2.664535e-15 -3.398296e+00 1.316240e+01
      endloop
   endfacet
   facet normal -0.000000e+00 5.680648e-01 8.229838e-01
      outer loop
         vertex 3.000000e+00 -1.241117e+00 1.072744e+01
         vertex 1.776357e-15 -1.241117e+00 1.072744e+01
         vertex 2.664535e-15 -2.619788e+00 1.167907e+01
      endloop
   endfacet
   facet normal 0.000000e+00 5.680648e-01 8.229838e-01
      outer loop
         vertex 3.000000e+00 -2.619788e+00 1.167907e+01
         vertex 3.000000e+00 -1.241117e+00 1.072744e+01
         vertex 2.664535e-15 -2.619788e+00 1.167907e+01
      endloop
   endfacet
   facet normal -0.000000e+00 1.205362e-01 9.927089e-01
      outer loop
         vertex 3.000000e+00 4.218784e-01 1.052552e+01
         vertex 1.776357e-15 4.218784e-01 1.052552e+01
         vertex 1.776357e-15 -1.241117e+00 1.072744e+01
      endloop
   endfacet
   facet normal 0.000000e+00 1.205362e-01 9.927089e-01
      outer loop
         vertex 3.000000e+00 -1.241117e+00 1.072744e+01
         vertex 3.000000e+00 4.218784e-01 1.052552e+01
         vertex 1.776357e-15 -1.241117e+00 1.072744e+01
      endloop
   endfacet
   facet normal 0.000000e+00 -3.546046e-01 9.350163e-01
      outer loop
         vertex 3.000000e+00 1.988227e+00 1.111956e+01
         vertex 1.776357e-15 1.988227e+00 1.111956e+01
         vertex 1.776357e-15 4.218784e-01 1.052552e+01
      endloop
   endfacet
   facet normal 0.000000e+00 -3.546046e-01 9.350163e-01
      outer loop
         vertex 3.000000e+00 4.218784e-01 1.052552e+01
         vertex 3.000000e+00 1.988227e+00 1.111956e+01
         vertex 1.776357e-15 4.218784e-01 1.052552e+01
      endloop
   endfacet
   facet normal 0.000000e+00 -7.485109e-01 6.631225e-01
      outer loop
         vertex 3.000000e+00 3.099096e+00 1.237347e+01
         vertex 2.664535e-15 3.099096e+00 1.237347e+01
         vertex 1.776357e-15 1.988227e+00 1.111956e+01
      endloop
   endfacet
   facet normal 0.000000e+00 -7.485109e-01 6.631225e-01
      outer loop
         vertex 3.000000e+00 1.988227e+00 1.111956e+01
         vertex 3.000000e+00 3.099096e+00 1.237347e+01
         vertex 1.776357e-15 1.988227e+00 1.111956e+01
      endloop
   endfacet
   facet normal 0.000000e+00 -9.709418e-01 2.393157e-01
      outer loop
         vertex 3.000000e+00 3.500000e+00 1.400000e+01
         vertex 2.664535e-15 3.500000e+00 1.400000e+01
         vertex 2.664535e-15 3.099096e+00 1.237347e+01
      endloop
   endfacet
   facet normal 0.000000e+00 -9.709418e-01 2.393157e-01
      outer loop
         vertex 3.000000e+00 3.099096e+00 1.237347e+01
         vertex 3.000000e+00 3.500000e+00 1.400000e+01
         vertex 2.664535e-15 3.099096e+00 1.237347e+01
      endloop
   endfacet
   facet normal 0.000000e+00 -1.000000e+00 -0.000000e+00
      outer loop
         vertex 3.000000e+00 -6.000000e+00 3.700000e+01
         vertex 6.796790e-15 -6.000000e+00 3.700000e+01
         vertex 5.510911e-15 -6.000000e+00 3.000000e+01
      endloop
   endfacet
   facet normal 0.000000e+00 -1.000000e+00 0.000000e+00
      outer loop
         vertex 3.000000e+00 -6.000000e+00 3.700000e+01
         vertex 5.510911e-15 -6.000000e+00 3.000000e+01
         vertex 3.000000e+00 -6.000000e+00 3.000000e+01
      endloop
   endfacet
   facet normal -0.000000e+00 0.000000e+00 1.000000e+00
      outer loop
         vertex 3.000000e+00 6.000000e+00 3.700000e+01
         vertex 6.796790e-15 6.000000e+00 3.700000e+01
         vertex 6.796790e-15 -6.000000e+00 3.700000e+01
      endloop
   endfacet
   facet normal 0.000000e+00 0.000000e+00 1.000000e+00
      outer loop
         vertex 3.000000e+00 6.000000e+00 3.700000e+01
         vertex 6.796790e-15 -6.000000e+00 3.700000e+01
         vertex 3.000000e+00 -6.000000e+00 3.700000e+01
      endloop
   endfacet
   facet normal 0.000000e+00 1.000000e+00 0.000000e+00
      outer loop
         vertex 3.000000e+00 6.000000e+00 3.000000e+01
         vertex 5.510911e-15 6.000000e+00 3.000000e+01
         vertex 6.796790e-15 6.000000e+00 3.700000e+01
      endloop
   endfacet
   facet normal -0.000000e+00 1.000000e+00 0.000000e+00
      outer loop
         vertex 3.000000e+00 6.000000e+00 3.000000e+01
         vertex 6.796790e-15 6.000000e+00 3.700000e+01
         vertex 3.000000e+00 6.000000e+00 3.700000e+01
      endloop
   endfacet
   facet normal -0.000000e+00 0.000000e+00 1.000000e+00
      outer loop
         vertex 3.000000e+00 2.000000e+01 3.000000e+01
         vertex 5.510911e-15 2.000000e+01 3.000000e+01
         vertex 5.510911e-15 6.000000e+00 3.000000e+01
      endloop
   endfacet
   facet normal 0.000000e+00 0.000000e+00 1.000000e+00
      outer loop
         vertex 3.000000e+00 2.000000e+01 3.000000e+01
         vertex 5.510911e-15 6.000000e+00 3.000000e+01
         vertex 3.000000e+00 6.000000e+00 3.000000e+01
      endloop
   endfacet
   facet normal 0.000000e+00 1.000000e+00 0.000000e+00
      outer loop
         vertex 3.000000e+00 2.000000e+01 -3.000000e+01
         vertex -5.510911e-15 2.000000e+01 -3.000000e+01
         vertex 5.510911e-15 2.000000e+01 3.000000e+01
      endloop
   endfacet
   facet normal -0.000000e+00 1.000000e+00 0.000000e+00
      outer loop
         vertex 3.000000e+00 2.000000e+01 -3.000000e+01
         vertex 5.510911e-15 2.000000e+01 3.000000e+01
         vertex 3.000000e+00 2.000000e+01 3.000000e+01
      endloop
   endfacet
   facet normal 0.000000e+00 0.000000e+00 -1.000000e+00
      outer loop
         vertex 3.000000e+00 6.000000e+00 -3.000000e+01
         vertex -5.510911e-15 6.000000e+00 -3.000000e+01
         vertex -5.510911e-15 2.000000e+01 -3.000000e+01
      endloop
   endfacet
   facet normal 0.000000e+00 0.000000e+00 -1.000000e+00
      outer loop
         vertex 3.000000e+00 6.000000e+00 -3.000000e+01
         vertex -5.510911e-15 2.000000e+01 -3.000000e+01
         vertex 3.000000e+00 2.000000e+01 -3.000000e+01
      endloop
   endfacet
   facet normal 0.000000e+00 -1.000000e+00 -0.000000e+00
      outer loop
         vertex 3.000000e+00 6.000000e+00 -2.200000e+01
         vertex -4.041334e-15 6.000000e+00 -2.200000e+01
         vertex -5.510911e-15 6.000000e+00 -3.000000e+01
      endloop
   endfacet
   facet normal 0.000000e+00 -1.000000e+00 0.000000e+00
      outer loop
         vertex 3.000000e+00 6.000000e+00 -2.200000e+01
         vertex -5.510911e-15 6.000000e+00 -3.000000e+01
         vertex 3.000000e+00 6.000000e+00 -3.000000e+01
      endloop
   endfacet
   facet normal 0.000000e+00 0.000000e+00 -1.000000e+00
      outer loop
         vertex 3.000000e+00 -6.000000e+00 -2.200000e+01
         vertex -4.041334e-15 -6.000000e+00 -2.200000e+01
         vertex -4.041334e-15 6.000000e+00 -2.200000e+01
      endloop
   endfacet
   facet normal 0.000000e+00 0.000000e+00 -1.000000e+00
      outer loop
         vertex 3.000000e+00 -6.000000e+00 -2.200000e+01
         vertex -4.041334e-15 6.000000e+00 -2.200000e+01
         vertex 3.000000e+00 6.000000e+00 -2.200000e+01
      endloop
   endfacet
   facet normal 0.000000e+00 1.000000e+00 0.000000e+00
      outer loop
         vertex 3.000000e+00 -6.000000e+00 -3.000000e+01
         vertex -5.510911e-15 -6.000000e+00 -3.000000e+01
         vertex -4.041334e-15 -6.000000e+00 -2.200000e+01
      endloop
   endfacet
   facet normal -0.000000e+00 1.000000e+00 0.000000e+00
      outer loop
         vertex 3.000000e+00 -6.000000e+00 -3.000000e+01
         vertex -4.041334e-15 -6.000000e+00 -2.200000e+01
         vertex 3.000000e+00 -6.000000e+00 -2.200000e+01
      endloop
   endfacet
   facet normal 0.000000e+00 0.000000e+00 -1.000000e+00
      outer loop
         vertex 3.000000e+00 -2.000000e+01 -3.000000e+01
         vertex -5.510911e-15 -2.000000e+01 -3.000000e+01
         vertex -5.510911e-15 -6.000000e+00 -3.000000e+01
      endloop
   endfacet
   facet normal 0.000000e+00 0.000000e+00 -1.000000e+00
      outer loop
         vertex 3.000000e+00 -2.000000e+01 -3.000000e+01
         vertex -5.510911e-15 -6.000000e+00 -3.000000e+01
         vertex 3.000000e+00 -6.000000e+00 -3.000000e+01
      endloop
   endfacet
   facet normal 0.000000e+00 -1.000000e+00 -0.000000e+00
      outer loop
         vertex 3.000000e+00 -2.000000e+01 3.000000e+01
         vertex 5.510911e-15 -2.000000e+01 3.000000e+01
         vertex -5.510911e-15 -2.000000e+01 -3.000000e+01
      endloop
   endfacet
   facet normal 0.000000e+00 -1.000000e+00 0.000000e+00
      outer loop
         vertex 3.000000e+00 -2.000000e+01 3.000000e+01
         vertex -5.510911e-15 -2.000000e+01 -3.000000e+01
         vertex 3.000000e+00 -2.000000e+01 -3.000000e+01
      endloop
   endfacet
   facet normal -0.000000e+00 0.000000e+00 1.000000e+00
      outer loop
         vertex 3.000000e+00 -6.000000e+00 3.000000e+01
         vertex 5.510911e-15 -6.000000e+00 3.000000e+01
         vertex 5.510911e-15 -2.000000e+01 3.000000e+01
      endloop
   endfacet
   facet normal 0.000000e+00 0.000000e+00 1.000000e+00
      outer loop
         vertex 3.000000e+00 -6.000000e+00 3.000000e+01
         vertex 5.510911e-15 -2.000000e+01 3.000000e+01
         vertex 3.000000e+00 -2.000000e+01 3.000000e+01
      endloop
   endfacet
endsolid
