solid 
   facet normal 0.000000e+00 -1.000000e+00 -6.123235e-17
      outer loop
         vertex 5.000023e+02 9.797174e-15 -1.600000e+02
         vertex 5.000023e+02 7.347880e-15 -1.200000e+02
         vertex 1.733022e+02 9.797174e-15 -1.600000e+02
      endloop
   endfacet
   facet normal 0.000000e+00 -1.000000e+00 -6.123235e-17
      outer loop
         vertex 5.000023e+02 7.347880e-15 -1.200000e+02
         vertex 4.222556e+02 7.347880e-15 -1.200000e+02
         vertex 1.733022e+02 9.797174e-15 -1.600000e+02
      endloop
   endfacet
   facet normal -5.991055e-24 -1.000000e+00 -6.123235e-17
      outer loop
         vertex 1.733022e+02 9.797174e-15 -1.600000e+02
         vertex 1.862263e+02 7.347880e-15 -1.200000e+02
         vertex 1.224647e-14 2.449294e-15 -4.000000e+01
      endloop
   endfacet
   facet normal -0.000000e+00 -1.000000e+00 -6.123233e-17
      outer loop
         vertex 1.862263e+02 7.347880e-15 -1.200000e+02
         vertex 7.069148e+01 2.449294e-15 -4.000000e+01
         vertex 1.224647e-14 2.449294e-15 -4.000000e+01
      endloop
   endfacet
   facet normal -0.000000e+00 -1.000000e+00 -6.123234e-17
      outer loop
         vertex 1.224647e-14 2.449294e-15 -4.000000e+01
         vertex 7.069148e+01 2.449294e-15 -4.000000e+01
         vertex 0.000000e+00 0.000000e+00 0.000000e+00
      endloop
   endfacet
   facet normal -0.000000e+00 -1.000000e+00 -6.123234e-17
      outer loop
         vertex 7.069148e+01 2.449294e-15 -4.000000e+01
         vertex 2.276727e+02 2.449294e-15 -4.000000e+01
         vertex 0.000000e+00 0.000000e+00 0.000000e+00
      endloop
   endfacet
   facet normal -1.051815e-33 -1.000000e+00 -6.123234e-17
      outer loop
         vertex 0.000000e+00 0.000000e+00 0.000000e+00
         vertex 2.276727e+02 2.449294e-15 -4.000000e+01
         vertex 3.000000e+02 -2.249640e-30 3.673940e-14
      endloop
   endfacet
   facet normal -0.000000e+00 -1.000000e+00 -6.123234e-17
      outer loop
         vertex 2.276727e+02 2.449294e-15 -4.000000e+01
         vertex 2.676727e+02 2.449294e-15 -4.000000e+01
         vertex 3.000000e+02 -2.249640e-30 3.673940e-14
      endloop
   endfacet
   facet normal -1.815797e-24 -1.000000e+00 -6.123234e-17
      outer loop
         vertex 3.000000e+02 -2.249640e-30 3.673940e-14
         vertex 2.889207e+02 2.449294e-15 -4.000000e+01
         vertex 5.000023e+02 7.347880e-15 -1.200000e+02
      endloop
   endfacet
   facet normal 0.000000e+00 -1.000000e+00 -6.123233e-17
      outer loop
         vertex 2.889207e+02 2.449294e-15 -4.000000e+01
         vertex 4.222556e+02 7.347880e-15 -1.200000e+02
         vertex 5.000023e+02 7.347880e-15 -1.200000e+02
      endloop
   endfacet
   facet normal 0.000000e+00 -1.000000e+00 -6.123233e-17
      outer loop
         vertex 2.676727e+02 2.449294e-15 -4.000000e+01
         vertex 2.276727e+02 2.449294e-15 -4.000000e+01
         vertex 2.676727e+02 7.347880e-15 -1.200000e+02
      endloop
   endfacet
   facet normal 0.000000e+00 -1.000000e+00 -6.123233e-17
      outer loop
         vertex 2.276727e+02 2.449294e-15 -4.000000e+01
         vertex 2.276727e+02 7.347880e-15 -1.200000e+02
         vertex 2.676727e+02 7.347880e-15 -1.200000e+02
      endloop
   endfacet
   facet normal 0.000000e+00 -1.000000e+00 -6.123235e-17
      outer loop
         vertex 1.862263e+02 7.347880e-15 -1.200000e+02
         vertex 1.733022e+02 9.797174e-15 -1.600000e+02
         vertex 2.276727e+02 7.347880e-15 -1.200000e+02
      endloop
   endfacet
   facet normal -0.000000e+00 -1.000000e+00 -6.123235e-17
      outer loop
         vertex 1.733022e+02 9.797174e-15 -1.600000e+02
         vertex 2.676727e+02 7.347880e-15 -1.200000e+02
         vertex 2.276727e+02 7.347880e-15 -1.200000e+02
      endloop
   endfacet
   facet normal 0.000000e+00 -1.000000e+00 -6.123234e-17
      outer loop
         vertex 2.889207e+02 2.449294e-15 -4.000000e+01
         vertex 3.000000e+02 -2.249640e-30 3.673940e-14
         vertex 2.676727e+02 2.449294e-15 -4.000000e+01
      endloop
   endfacet
   facet normal 0.000000e+00 -1.000000e+00 -6.123235e-17
      outer loop
         vertex 2.676727e+02 7.347880e-15 -1.200000e+02
         vertex 1.733022e+02 9.797174e-15 -1.600000e+02
         vertex 4.222556e+02 7.347880e-15 -1.200000e+02
      endloop
   endfacet
   facet normal 0.000000e+00 1.000000e+00 -0.000000e+00
      outer loop
         vertex 3.000000e+02 2.000000e+01 3.796405e-14
         vertex 2.889207e+02 2.000000e+01 -4.000000e+01
         vertex -0.000000e+00 2.000000e+01 1.224647e-15
      endloop
   endfacet
   facet normal 0.000000e+00 1.000000e+00 -0.000000e+00
      outer loop
         vertex 2.889207e+02 2.000000e+01 -4.000000e+01
         vertex 2.676727e+02 2.000000e+01 -4.000000e+01
         vertex -0.000000e+00 2.000000e+01 1.224647e-15
      endloop
   endfacet
   facet normal 0.000000e+00 1.000000e+00 0.000000e+00
      outer loop
         vertex -0.000000e+00 2.000000e+01 1.224647e-15
         vertex 7.069148e+01 2.000000e+01 -4.000000e+01
         vertex 1.224647e-14 2.000000e+01 -4.000000e+01
      endloop
   endfacet
   facet normal 0.000000e+00 1.000000e+00 0.000000e+00
      outer loop
         vertex 7.069148e+01 2.000000e+01 -4.000000e+01
         vertex 1.862263e+02 2.000000e+01 -1.200000e+02
         vertex 1.224647e-14 2.000000e+01 -4.000000e+01
      endloop
   endfacet
   facet normal 0.000000e+00 1.000000e+00 0.000000e+00
      outer loop
         vertex 1.224647e-14 2.000000e+01 -4.000000e+01
         vertex 1.862263e+02 2.000000e+01 -1.200000e+02
         vertex 1.733022e+02 2.000000e+01 -1.600000e+02
      endloop
   endfacet
   facet normal 0.000000e+00 1.000000e+00 0.000000e+00
      outer loop
         vertex 1.862263e+02 2.000000e+01 -1.200000e+02
         vertex 2.276727e+02 2.000000e+01 -1.200000e+02
         vertex 1.733022e+02 2.000000e+01 -1.600000e+02
      endloop
   endfacet
   facet normal 0.000000e+00 1.000000e+00 0.000000e+00
      outer loop
         vertex 1.733022e+02 2.000000e+01 -1.600000e+02
         vertex 2.276727e+02 2.000000e+01 -1.200000e+02
         vertex 5.000023e+02 2.000000e+01 -1.600000e+02
      endloop
   endfacet
   facet normal 0.000000e+00 1.000000e+00 0.000000e+00
      outer loop
         vertex 2.276727e+02 2.000000e+01 -1.200000e+02
         vertex 2.676727e+02 2.000000e+01 -1.200000e+02
         vertex 5.000023e+02 2.000000e+01 -1.600000e+02
      endloop
   endfacet
   facet normal -0.000000e+00 1.000000e+00 0.000000e+00
      outer loop
         vertex 5.000023e+02 2.000000e+01 -1.600000e+02
         vertex 4.222556e+02 2.000000e+01 -1.200000e+02
         vertex 5.000023e+02 2.000000e+01 -1.200000e+02
      endloop
   endfacet
   facet normal 0.000000e+00 1.000000e+00 0.000000e+00
      outer loop
         vertex 4.222556e+02 2.000000e+01 -1.200000e+02
         vertex 2.889207e+02 2.000000e+01 -4.000000e+01
         vertex 5.000023e+02 2.000000e+01 -1.200000e+02
      endloop
   endfacet
   facet normal -0.000000e+00 1.000000e+00 0.000000e+00
      outer loop
         vertex 5.000023e+02 2.000000e+01 -1.200000e+02
         vertex 2.889207e+02 2.000000e+01 -4.000000e+01
         vertex 3.000000e+02 2.000000e+01 3.796405e-14
      endloop
   endfacet
   facet normal 0.000000e+00 1.000000e+00 0.000000e+00
      outer loop
         vertex 4.222556e+02 2.000000e+01 -1.200000e+02
         vertex 5.000023e+02 2.000000e+01 -1.600000e+02
         vertex 2.676727e+02 2.000000e+01 -1.200000e+02
      endloop
   endfacet
   facet normal 0.000000e+00 1.000000e+00 0.000000e+00
      outer loop
         vertex 7.069148e+01 2.000000e+01 -4.000000e+01
         vertex -0.000000e+00 2.000000e+01 1.224647e-15
         vertex 2.276727e+02 2.000000e+01 -4.000000e+01
      endloop
   endfacet
   facet normal 0.000000e+00 1.000000e+00 0.000000e+00
      outer loop
         vertex 2.676727e+02 2.000000e+01 -1.200000e+02
         vertex 2.276727e+02 2.000000e+01 -1.200000e+02
         vertex 2.676727e+02 2.000000e+01 -4.000000e+01
      endloop
   endfacet
   facet normal -0.000000e+00 1.000000e+00 0.000000e+00
      outer loop
         vertex 2.276727e+02 2.000000e+01 -1.200000e+02
         vertex 2.276727e+02 2.000000e+01 -4.000000e+01
         vertex 2.676727e+02 2.000000e+01 -4.000000e+01
      endloop
   endfacet
   facet normal 0.000000e+00 1.000000e+00 -0.000000e+00
      outer loop
         vertex 2.676727e+02 2.000000e+01 -4.000000e+01
         vertex 2.276727e+02 2.000000e+01 -4.000000e+01
         vertex -0.000000e+00 2.000000e+01 1.224647e-15
      endloop
   endfacet
   facet normal 0.000000e+00 -0.000000e+00 1.000000e+00
      outer loop
         vertex 2.676727e+02 7.347880e-15 -1.200000e+02
         vertex 4.222556e+02 7.347880e-15 -1.200000e+02
         vertex 4.222556e+02 2.000000e+01 -1.200000e+02
      endloop
   endfacet
   facet normal 0.000000e+00 0.000000e+00 1.000000e+00
      outer loop
         vertex 2.676727e+02 2.000000e+01 -1.200000e+02
         vertex 2.676727e+02 7.347880e-15 -1.200000e+02
         vertex 4.222556e+02 2.000000e+01 -1.200000e+02
      endloop
   endfacet
   facet normal -5.144915e-01 -0.000000e+00 -8.574955e-01
      outer loop
         vertex 2.889207e+02 2.449294e-15 -4.000000e+01
         vertex 2.889207e+02 2.000000e+01 -4.000000e+01
         vertex 4.222556e+02 2.000000e+01 -1.200000e+02
      endloop
   endfacet
   facet normal -5.144915e-01 0.000000e+00 -8.574955e-01
      outer loop
         vertex 4.222556e+02 7.347880e-15 -1.200000e+02
         vertex 2.889207e+02 2.449294e-15 -4.000000e+01
         vertex 4.222556e+02 2.000000e+01 -1.200000e+02
      endloop
   endfacet
   facet normal 0.000000e+00 0.000000e+00 -1.000000e+00
      outer loop
         vertex 2.676727e+02 2.449294e-15 -4.000000e+01
         vertex 2.676727e+02 2.000000e+01 -4.000000e+01
         vertex 2.889207e+02 2.000000e+01 -4.000000e+01
      endloop
   endfacet
   facet normal 0.000000e+00 0.000000e+00 -1.000000e+00
      outer loop
         vertex 2.889207e+02 2.449294e-15 -4.000000e+01
         vertex 2.676727e+02 2.449294e-15 -4.000000e+01
         vertex 2.889207e+02 2.000000e+01 -4.000000e+01
      endloop
   endfacet
   facet normal 1.000000e+00 0.000000e+00 -0.000000e+00
      outer loop
         vertex 2.676727e+02 7.347880e-15 -1.200000e+02
         vertex 2.676727e+02 2.000000e+01 -1.200000e+02
         vertex 2.676727e+02 2.000000e+01 -4.000000e+01
      endloop
   endfacet
   facet normal 1.000000e+00 0.000000e+00 -0.000000e+00
      outer loop
         vertex 2.676727e+02 2.449294e-15 -4.000000e+01
         vertex 2.676727e+02 7.347880e-15 -1.200000e+02
         vertex 2.676727e+02 2.000000e+01 -4.000000e+01
      endloop
   endfacet
   facet normal 0.000000e+00 0.000000e+00 -1.000000e+00
      outer loop
         vertex 7.069148e+01 2.449294e-15 -4.000000e+01
         vertex 7.069148e+01 2.000000e+01 -4.000000e+01
         vertex 2.276727e+02 2.000000e+01 -4.000000e+01
      endloop
   endfacet
   facet normal 0.000000e+00 0.000000e+00 -1.000000e+00
      outer loop
         vertex 2.276727e+02 2.449294e-15 -4.000000e+01
         vertex 7.069148e+01 2.449294e-15 -4.000000e+01
         vertex 2.276727e+02 2.000000e+01 -4.000000e+01
      endloop
   endfacet
   facet normal 5.692790e-01 -0.000000e+00 8.221444e-01
      outer loop
         vertex 7.069148e+01 2.449294e-15 -4.000000e+01
         vertex 1.862263e+02 7.347880e-15 -1.200000e+02
         vertex 1.862263e+02 2.000000e+01 -1.200000e+02
      endloop
   endfacet
   facet normal 5.692790e-01 -0.000000e+00 8.221444e-01
      outer loop
         vertex 7.069148e+01 2.000000e+01 -4.000000e+01
         vertex 7.069148e+01 2.449294e-15 -4.000000e+01
         vertex 1.862263e+02 2.000000e+01 -1.200000e+02
      endloop
   endfacet
   facet normal 0.000000e+00 -0.000000e+00 1.000000e+00
      outer loop
         vertex 1.862263e+02 7.347880e-15 -1.200000e+02
         vertex 2.276727e+02 7.347880e-15 -1.200000e+02
         vertex 2.276727e+02 2.000000e+01 -1.200000e+02
      endloop
   endfacet
   facet normal 0.000000e+00 0.000000e+00 1.000000e+00
      outer loop
         vertex 1.862263e+02 2.000000e+01 -1.200000e+02
         vertex 1.862263e+02 7.347880e-15 -1.200000e+02
         vertex 2.276727e+02 2.000000e+01 -1.200000e+02
      endloop
   endfacet
   facet normal -1.000000e+00 -0.000000e+00 -0.000000e+00
      outer loop
         vertex 2.276727e+02 2.449294e-15 -4.000000e+01
         vertex 2.276727e+02 2.000000e+01 -4.000000e+01
         vertex 2.276727e+02 2.000000e+01 -1.200000e+02
      endloop
   endfacet
   facet normal -1.000000e+00 0.000000e+00 0.000000e+00
      outer loop
         vertex 2.276727e+02 7.347880e-15 -1.200000e+02
         vertex 2.276727e+02 2.449294e-15 -4.000000e+01
         vertex 2.276727e+02 2.000000e+01 -1.200000e+02
      endloop
   endfacet
   facet normal 5.144915e-01 -5.250646e-17 8.574955e-01
      outer loop
         vertex 3.000000e+02 2.000000e+01 3.796405e-14
         vertex 3.000000e+02 -2.249640e-30 3.673940e-14
         vertex 5.000023e+02 7.347880e-15 -1.200000e+02
      endloop
   endfacet
   facet normal 5.144915e-01 -0.000000e+00 8.574955e-01
      outer loop
         vertex 3.000000e+02 2.000000e+01 3.796405e-14
         vertex 5.000023e+02 7.347880e-15 -1.200000e+02
         vertex 5.000023e+02 2.000000e+01 -1.200000e+02
      endloop
   endfacet
   facet normal -1.224647e-16 -6.123234e-17 1.000000e+00
      outer loop
         vertex -0.000000e+00 2.000000e+01 1.224647e-15
         vertex 0.000000e+00 0.000000e+00 0.000000e+00
         vertex 3.000000e+02 -4.499279e-30 3.673940e-14
      endloop
   endfacet
   facet normal -1.224647e-16 -6.123235e-17 1.000000e+00
      outer loop
         vertex -0.000000e+00 2.000000e+01 1.224647e-15
         vertex 3.000000e+02 -4.499279e-30 3.673940e-14
         vertex 3.000000e+02 2.000000e+01 3.796405e-14
      endloop
   endfacet
   facet normal -1.000000e+00 0.000000e+00 -3.061617e-16
      outer loop
         vertex 1.224647e-14 2.000000e+01 -4.000000e+01
         vertex 1.224647e-14 2.449294e-15 -4.000000e+01
         vertex 0.000000e+00 0.000000e+00 0.000000e+00
      endloop
   endfacet
   facet normal -1.000000e+00 -1.196680e-39 -3.061617e-16
      outer loop
         vertex 1.224647e-14 2.000000e+01 -4.000000e+01
         vertex 0.000000e+00 0.000000e+00 0.000000e+00
         vertex -3.749400e-31 2.000000e+01 1.224647e-15
      endloop
   endfacet
   facet normal -5.692790e-01 0.000000e+00 -8.221444e-01
      outer loop
         vertex 1.733022e+02 2.000000e+01 -1.600000e+02
         vertex 1.733022e+02 9.797174e-15 -1.600000e+02
         vertex -8.526513e-14 2.449294e-15 -4.000000e+01
      endloop
   endfacet
   facet normal -5.692790e-01 -1.631469e-17 -8.221444e-01
      outer loop
         vertex 1.733022e+02 2.000000e+01 -1.600000e+02
         vertex -8.526513e-14 2.449294e-15 -4.000000e+01
         vertex -8.583830e-14 2.000000e+01 -4.000000e+01
      endloop
   endfacet
   facet normal 0.000000e+00 0.000000e+00 -1.000000e+00
      outer loop
         vertex 5.000023e+02 2.000000e+01 -1.600000e+02
         vertex 5.000023e+02 9.797174e-15 -1.600000e+02
         vertex 1.733022e+02 9.797174e-15 -1.600000e+02
      endloop
   endfacet
   facet normal 0.000000e+00 0.000000e+00 -1.000000e+00
      outer loop
         vertex 5.000023e+02 2.000000e+01 -1.600000e+02
         vertex 1.733022e+02 9.797174e-15 -1.600000e+02
         vertex 1.733022e+02 2.000000e+01 -1.600000e+02
      endloop
   endfacet
   facet normal 1.000000e+00 -0.000000e+00 0.000000e+00
      outer loop
         vertex 5.000023e+02 2.000000e+01 -1.200000e+02
         vertex 5.000023e+02 7.347880e-15 -1.200000e+02
         vertex 5.000023e+02 9.797174e-15 -1.600000e+02
      endloop
   endfacet
   facet normal 1.000000e+00 0.000000e+00 0.000000e+00
      outer loop
         vertex 5.000023e+02 2.000000e+01 -1.200000e+02
         vertex 5.000023e+02 9.797174e-15 -1.600000e+02
         vertex 5.000023e+02 2.000000e+01 -1.600000e+02
      endloop
   endfacet
endsolid
